<mxfile modified="2019-11-14T14:58:07.581Z" host="www.draw.io" agent="Mozilla/5.0 (Macintosh; Intel Mac OS X 10_14_6) AppleWebKit/537.36 (KHTML, like Gecko) Chrome/78.0.3904.97 Safari/537.36" etag="Y1nE3YvDR9qZaiAW6Gau" version="12.2.6" type="github" pages="7">
  <diagram id="wLWgB8oCu5mPohRzCKuk" name="系统架构图">
    <mxGraphModel dx="946" dy="591" grid="1" gridSize="10" guides="1" tooltips="1" connect="1" arrows="1" fold="1" page="1" pageScale="1" pageWidth="827" pageHeight="1169" math="0" shadow="0">
      <root>
        <mxCell id="0"/>
        <mxCell id="1" parent="0"/>
        <mxCell id="6Af2wgro7MaPZafJDlm1-158" style="edgeStyle=orthogonalEdgeStyle;rounded=0;orthogonalLoop=1;jettySize=auto;html=1;exitX=0.5;exitY=1;exitDx=0;exitDy=0;entryX=0.509;entryY=-0.011;entryDx=0;entryDy=0;entryPerimeter=0;" parent="1" source="6Af2wgro7MaPZafJDlm1-1" target="6Af2wgro7MaPZafJDlm1-13" edge="1">
          <mxGeometry relative="1" as="geometry"/>
        </mxCell>
        <mxCell id="6Af2wgro7MaPZafJDlm1-1" value="" style="rounded=0;whiteSpace=wrap;html=1;" parent="1" vertex="1">
          <mxGeometry x="90" y="40" width="650" height="120" as="geometry"/>
        </mxCell>
        <mxCell id="6Af2wgro7MaPZafJDlm1-2" value="&lt;font style=&quot;font-size: 14px&quot;&gt;Server(Node)&lt;/font&gt;" style="rounded=0;whiteSpace=wrap;html=1;" parent="1" vertex="1">
          <mxGeometry x="90" y="40" width="90" height="30" as="geometry"/>
        </mxCell>
        <mxCell id="6Af2wgro7MaPZafJDlm1-7" style="edgeStyle=orthogonalEdgeStyle;rounded=0;orthogonalLoop=1;jettySize=auto;html=1;exitX=1;exitY=0.5;exitDx=0;exitDy=0;entryX=0;entryY=0.5;entryDx=0;entryDy=0;" parent="1" source="6Af2wgro7MaPZafJDlm1-3" target="6Af2wgro7MaPZafJDlm1-5" edge="1">
          <mxGeometry relative="1" as="geometry"/>
        </mxCell>
        <mxCell id="6Af2wgro7MaPZafJDlm1-3" value="&lt;font style=&quot;font-size: 14px&quot;&gt;&lt;br&gt;&lt;/font&gt;" style="rounded=0;whiteSpace=wrap;html=1;" parent="1" vertex="1">
          <mxGeometry x="222.5" y="50" width="100" height="100" as="geometry"/>
        </mxCell>
        <mxCell id="6Af2wgro7MaPZafJDlm1-4" value="&lt;span style=&quot;white-space: normal&quot;&gt;&lt;font style=&quot;font-size: 14px&quot;&gt;HashRooter&lt;/font&gt;&lt;/span&gt;" style="rounded=0;whiteSpace=wrap;html=1;" parent="1" vertex="1">
          <mxGeometry x="222.5" y="50" width="80" height="20" as="geometry"/>
        </mxCell>
        <mxCell id="6Af2wgro7MaPZafJDlm1-8" style="edgeStyle=orthogonalEdgeStyle;rounded=0;orthogonalLoop=1;jettySize=auto;html=1;exitX=1;exitY=0.5;exitDx=0;exitDy=0;entryX=0;entryY=0.5;entryDx=0;entryDy=0;" parent="1" source="6Af2wgro7MaPZafJDlm1-5" target="6Af2wgro7MaPZafJDlm1-6" edge="1">
          <mxGeometry relative="1" as="geometry"/>
        </mxCell>
        <mxCell id="6Af2wgro7MaPZafJDlm1-5" value="&lt;font style=&quot;font-size: 14px&quot;&gt;MiddleWare&lt;/font&gt;" style="rounded=0;whiteSpace=wrap;html=1;" parent="1" vertex="1">
          <mxGeometry x="413" y="85" width="90" height="30" as="geometry"/>
        </mxCell>
        <mxCell id="6Af2wgro7MaPZafJDlm1-6" value="&lt;font style=&quot;font-size: 14px&quot;&gt;Utils&lt;/font&gt;" style="rounded=0;whiteSpace=wrap;html=1;" parent="1" vertex="1">
          <mxGeometry x="579.5" y="85" width="50" height="30" as="geometry"/>
        </mxCell>
        <mxCell id="6Af2wgro7MaPZafJDlm1-9" value="&lt;span style=&quot;font-size: 14px ; white-space: normal&quot;&gt;Proxy&lt;/span&gt;" style="rounded=0;whiteSpace=wrap;html=1;" parent="1" vertex="1">
          <mxGeometry x="245" y="80" width="45" height="20" as="geometry"/>
        </mxCell>
        <mxCell id="6Af2wgro7MaPZafJDlm1-11" value="&lt;span style=&quot;font-size: 14px ; white-space: normal&quot;&gt;Page&lt;/span&gt;" style="rounded=0;whiteSpace=wrap;html=1;" parent="1" vertex="1">
          <mxGeometry x="245" y="115" width="45" height="20" as="geometry"/>
        </mxCell>
        <mxCell id="6Af2wgro7MaPZafJDlm1-13" value="" style="rounded=0;whiteSpace=wrap;html=1;" parent="1" vertex="1">
          <mxGeometry x="10" y="200" width="800" height="280" as="geometry"/>
        </mxCell>
        <mxCell id="6Af2wgro7MaPZafJDlm1-14" value="Cilents" style="rounded=0;whiteSpace=wrap;html=1;" parent="1" vertex="1">
          <mxGeometry x="10" y="200" width="50" height="20" as="geometry"/>
        </mxCell>
        <mxCell id="6Af2wgro7MaPZafJDlm1-17" value="" style="rounded=0;whiteSpace=wrap;html=1;" parent="1" vertex="1">
          <mxGeometry x="140" y="220" width="530" height="250" as="geometry"/>
        </mxCell>
        <mxCell id="6Af2wgro7MaPZafJDlm1-18" value="&lt;font style=&quot;font-size: 14px&quot;&gt;cn-pay-apps&lt;/font&gt;" style="rounded=0;whiteSpace=wrap;html=1;" parent="1" vertex="1">
          <mxGeometry x="140" y="220" width="90" height="20" as="geometry"/>
        </mxCell>
        <mxCell id="6Af2wgro7MaPZafJDlm1-19" value="" style="rounded=0;whiteSpace=wrap;html=1;fontFamily=Helvetica;fontSize=12;fontColor=#000000;align=center;strokeColor=#000000;fillColor=#ffffff;" parent="1" vertex="1">
          <mxGeometry x="175" y="250" width="465" height="80" as="geometry"/>
        </mxCell>
        <mxCell id="6Af2wgro7MaPZafJDlm1-20" value="&lt;span style=&quot;color: rgb(49 , 49 , 49) ; font-family: &amp;#34;stheiti&amp;#34; ; font-size: 13px ; text-align: left ; white-space: normal&quot;&gt;module 1&lt;/span&gt;" style="rounded=0;whiteSpace=wrap;html=1;" parent="1" vertex="1">
          <mxGeometry x="175" y="250" width="70" height="15" as="geometry"/>
        </mxCell>
        <mxCell id="6Af2wgro7MaPZafJDlm1-47" style="edgeStyle=none;rounded=0;orthogonalLoop=1;jettySize=auto;html=1;exitX=1;exitY=0.5;exitDx=0;exitDy=0;entryX=0;entryY=0.5;entryDx=0;entryDy=0;" parent="1" source="6Af2wgro7MaPZafJDlm1-23" edge="1">
          <mxGeometry relative="1" as="geometry">
            <mxPoint x="285" y="278" as="targetPoint"/>
          </mxGeometry>
        </mxCell>
        <mxCell id="6Af2wgro7MaPZafJDlm1-23" value="&lt;font style=&quot;font-size: 14px&quot;&gt;view&lt;/font&gt;" style="rounded=0;whiteSpace=wrap;html=1;" parent="1" vertex="1">
          <mxGeometry x="190" y="270" width="65" height="15" as="geometry"/>
        </mxCell>
        <mxCell id="6Af2wgro7MaPZafJDlm1-27" value="State" style="rounded=0;whiteSpace=wrap;html=1;" parent="1" vertex="1">
          <mxGeometry x="377.5" y="270" width="50" height="15" as="geometry"/>
        </mxCell>
        <mxCell id="6Af2wgro7MaPZafJDlm1-31" value="MiddleWare" style="rounded=0;whiteSpace=wrap;html=1;" parent="1" vertex="1">
          <mxGeometry x="461.5" y="270" width="75" height="15" as="geometry"/>
        </mxCell>
        <mxCell id="6Af2wgro7MaPZafJDlm1-42" value="" style="endArrow=classic;startArrow=classic;html=1;entryX=0;entryY=0.5;entryDx=0;entryDy=0;exitX=1;exitY=0.5;exitDx=0;exitDy=0;" parent="1" source="6Af2wgro7MaPZafJDlm1-88" target="6Af2wgro7MaPZafJDlm1-27" edge="1">
          <mxGeometry width="50" height="50" relative="1" as="geometry">
            <mxPoint x="345" y="278" as="sourcePoint"/>
            <mxPoint x="360" y="409" as="targetPoint"/>
          </mxGeometry>
        </mxCell>
        <mxCell id="6Af2wgro7MaPZafJDlm1-45" value="" style="endArrow=classic;startArrow=classic;html=1;entryX=0;entryY=0.5;entryDx=0;entryDy=0;exitX=1;exitY=0.5;exitDx=0;exitDy=0;" parent="1" source="6Af2wgro7MaPZafJDlm1-27" target="6Af2wgro7MaPZafJDlm1-31" edge="1">
          <mxGeometry width="50" height="50" relative="1" as="geometry">
            <mxPoint x="420" y="413" as="sourcePoint"/>
            <mxPoint x="380" y="423" as="targetPoint"/>
          </mxGeometry>
        </mxCell>
        <mxCell id="6Af2wgro7MaPZafJDlm1-59" value="......" style="rounded=0;whiteSpace=wrap;html=1;align=center;dashed=1;" parent="1" vertex="1">
          <mxGeometry x="340" y="342.5" width="110" height="25" as="geometry"/>
        </mxCell>
        <mxCell id="6Af2wgro7MaPZafJDlm1-60" value="" style="rounded=0;whiteSpace=wrap;html=1;fontFamily=Helvetica;fontSize=12;fontColor=#000000;align=center;strokeColor=#000000;fillColor=#ffffff;" parent="1" vertex="1">
          <mxGeometry x="175" y="378" width="465" height="82" as="geometry"/>
        </mxCell>
        <mxCell id="6Af2wgro7MaPZafJDlm1-61" value="&lt;span style=&quot;color: rgb(49 , 49 , 49) ; font-family: &amp;#34;stheiti&amp;#34; ; font-size: 13px ; text-align: left ; white-space: normal&quot;&gt;module 6&lt;/span&gt;" style="rounded=0;whiteSpace=wrap;html=1;" parent="1" vertex="1">
          <mxGeometry x="175" y="377.5" width="70" height="15" as="geometry"/>
        </mxCell>
        <mxCell id="6Af2wgro7MaPZafJDlm1-69" style="edgeStyle=none;rounded=0;orthogonalLoop=1;jettySize=auto;html=1;exitX=1;exitY=0.5;exitDx=0;exitDy=0;" parent="1" source="6Af2wgro7MaPZafJDlm1-62" target="6Af2wgro7MaPZafJDlm1-63" edge="1">
          <mxGeometry relative="1" as="geometry"/>
        </mxCell>
        <mxCell id="6Af2wgro7MaPZafJDlm1-62" value="&lt;font style=&quot;font-size: 14px&quot;&gt;view&lt;/font&gt;" style="rounded=0;whiteSpace=wrap;html=1;" parent="1" vertex="1">
          <mxGeometry x="180" y="395" width="70" height="15" as="geometry"/>
        </mxCell>
        <mxCell id="6Af2wgro7MaPZafJDlm1-63" value="&lt;font style=&quot;font-size: 14px&quot;&gt;selector&lt;/font&gt;" style="rounded=0;whiteSpace=wrap;html=1;" parent="1" vertex="1">
          <mxGeometry x="280" y="395" width="50" height="15" as="geometry"/>
        </mxCell>
        <mxCell id="6Af2wgro7MaPZafJDlm1-64" value="State" style="rounded=0;whiteSpace=wrap;html=1;" parent="1" vertex="1">
          <mxGeometry x="371" y="395" width="50" height="15" as="geometry"/>
        </mxCell>
        <mxCell id="6Af2wgro7MaPZafJDlm1-66" value="MiddleWare" style="rounded=0;whiteSpace=wrap;html=1;" parent="1" vertex="1">
          <mxGeometry x="461.5" y="395" width="70" height="15" as="geometry"/>
        </mxCell>
        <mxCell id="6Af2wgro7MaPZafJDlm1-70" value="" style="endArrow=classic;startArrow=classic;html=1;" parent="1" source="6Af2wgro7MaPZafJDlm1-64" edge="1">
          <mxGeometry width="50" height="50" relative="1" as="geometry">
            <mxPoint x="284.28932188134524" y="452.5" as="sourcePoint"/>
            <mxPoint x="330" y="403" as="targetPoint"/>
          </mxGeometry>
        </mxCell>
        <mxCell id="6Af2wgro7MaPZafJDlm1-71" value="" style="endArrow=classic;startArrow=classic;html=1;exitX=0;exitY=0.5;exitDx=0;exitDy=0;entryX=1;entryY=0.5;entryDx=0;entryDy=0;" parent="1" source="6Af2wgro7MaPZafJDlm1-66" target="6Af2wgro7MaPZafJDlm1-64" edge="1">
          <mxGeometry width="50" height="50" relative="1" as="geometry">
            <mxPoint x="410" y="450" as="sourcePoint"/>
            <mxPoint x="460" y="400" as="targetPoint"/>
          </mxGeometry>
        </mxCell>
        <mxCell id="6Af2wgro7MaPZafJDlm1-74" style="edgeStyle=none;rounded=0;orthogonalLoop=1;jettySize=auto;html=1;exitX=0;exitY=0.25;exitDx=0;exitDy=0;entryX=1;entryY=0.5;entryDx=0;entryDy=0;" parent="1" source="6Af2wgro7MaPZafJDlm1-17" target="6Af2wgro7MaPZafJDlm1-73" edge="1">
          <mxGeometry relative="1" as="geometry"/>
        </mxCell>
        <mxCell id="6Af2wgro7MaPZafJDlm1-77" style="edgeStyle=none;rounded=0;orthogonalLoop=1;jettySize=auto;html=1;exitX=0.5;exitY=1;exitDx=0;exitDy=0;" parent="1" source="6Af2wgro7MaPZafJDlm1-73" target="6Af2wgro7MaPZafJDlm1-76" edge="1">
          <mxGeometry relative="1" as="geometry"/>
        </mxCell>
        <mxCell id="6Af2wgro7MaPZafJDlm1-73" value="&lt;font style=&quot;font-size: 14px&quot;&gt;Component&lt;/font&gt;" style="rounded=0;whiteSpace=wrap;html=1;" parent="1" vertex="1">
          <mxGeometry x="25" y="260" width="85" height="45" as="geometry"/>
        </mxCell>
        <mxCell id="6Af2wgro7MaPZafJDlm1-76" value="&lt;font style=&quot;font-size: 14px&quot;&gt;UI&lt;/font&gt;" style="rounded=0;whiteSpace=wrap;html=1;" parent="1" vertex="1">
          <mxGeometry x="25" y="330" width="85" height="30" as="geometry"/>
        </mxCell>
        <mxCell id="6Af2wgro7MaPZafJDlm1-80" style="edgeStyle=none;rounded=0;orthogonalLoop=1;jettySize=auto;html=1;exitX=0.002;exitY=0.795;exitDx=0;exitDy=0;entryX=1;entryY=0.5;entryDx=0;entryDy=0;exitPerimeter=0;" parent="1" source="6Af2wgro7MaPZafJDlm1-17" target="6Af2wgro7MaPZafJDlm1-79" edge="1">
          <mxGeometry relative="1" as="geometry"/>
        </mxCell>
        <mxCell id="6Af2wgro7MaPZafJDlm1-79" value="&lt;font style=&quot;font-size: 14px&quot;&gt;Libs&lt;/font&gt;" style="rounded=0;whiteSpace=wrap;html=1;" parent="1" vertex="1">
          <mxGeometry x="17.5" y="402.5" width="85" height="30" as="geometry"/>
        </mxCell>
        <mxCell id="6Af2wgro7MaPZafJDlm1-112" style="edgeStyle=none;rounded=0;orthogonalLoop=1;jettySize=auto;html=1;exitX=0.5;exitY=1;exitDx=0;exitDy=0;entryX=0.681;entryY=-0.033;entryDx=0;entryDy=0;entryPerimeter=0;" parent="1" source="6Af2wgro7MaPZafJDlm1-82" target="6Af2wgro7MaPZafJDlm1-96" edge="1">
          <mxGeometry relative="1" as="geometry"/>
        </mxCell>
        <mxCell id="6Af2wgro7MaPZafJDlm1-82" value="Reducer" style="rounded=0;whiteSpace=wrap;html=1;" parent="1" vertex="1">
          <mxGeometry x="570.5" y="270" width="50" height="15" as="geometry"/>
        </mxCell>
        <mxCell id="6Af2wgro7MaPZafJDlm1-88" value="&lt;font style=&quot;font-size: 14px&quot;&gt;selector&lt;/font&gt;" style="rounded=0;whiteSpace=wrap;html=1;" parent="1" vertex="1">
          <mxGeometry x="285" y="270" width="55" height="15" as="geometry"/>
        </mxCell>
        <mxCell id="6Af2wgro7MaPZafJDlm1-93" value="" style="endArrow=classic;startArrow=classic;html=1;entryX=0;entryY=0.5;entryDx=0;entryDy=0;exitX=1;exitY=0.5;exitDx=0;exitDy=0;" parent="1" source="6Af2wgro7MaPZafJDlm1-31" target="6Af2wgro7MaPZafJDlm1-82" edge="1">
          <mxGeometry width="50" height="50" relative="1" as="geometry">
            <mxPoint x="540" y="330" as="sourcePoint"/>
            <mxPoint x="590" y="280" as="targetPoint"/>
          </mxGeometry>
        </mxCell>
        <mxCell id="6Af2wgro7MaPZafJDlm1-110" style="edgeStyle=none;rounded=0;orthogonalLoop=1;jettySize=auto;html=1;exitX=0.5;exitY=1;exitDx=0;exitDy=0;entryX=0.5;entryY=0;entryDx=0;entryDy=0;" parent="1" source="6Af2wgro7MaPZafJDlm1-23" target="6Af2wgro7MaPZafJDlm1-94" edge="1">
          <mxGeometry relative="1" as="geometry"/>
        </mxCell>
        <mxCell id="6Af2wgro7MaPZafJDlm1-94" value="&lt;font style=&quot;font-size: 14px&quot;&gt;viewTest&lt;/font&gt;" style="rounded=0;whiteSpace=wrap;html=1;align=left;" parent="1" vertex="1">
          <mxGeometry x="192.5" y="305.5" width="60" height="15" as="geometry"/>
        </mxCell>
        <mxCell id="6Af2wgro7MaPZafJDlm1-96" value="&lt;span style=&quot;font-size: 14px&quot;&gt;reducerTest&lt;/span&gt;" style="rounded=0;whiteSpace=wrap;html=1;" parent="1" vertex="1">
          <mxGeometry x="540.5" y="305.5" width="80" height="15" as="geometry"/>
        </mxCell>
        <mxCell id="6Af2wgro7MaPZafJDlm1-133" style="edgeStyle=none;rounded=0;orthogonalLoop=1;jettySize=auto;html=1;exitX=0.5;exitY=1;exitDx=0;exitDy=0;entryX=0.663;entryY=-0.033;entryDx=0;entryDy=0;entryPerimeter=0;" parent="1" source="6Af2wgro7MaPZafJDlm1-115" target="6Af2wgro7MaPZafJDlm1-128" edge="1">
          <mxGeometry relative="1" as="geometry"/>
        </mxCell>
        <mxCell id="6Af2wgro7MaPZafJDlm1-115" value="Reducer" style="rounded=0;whiteSpace=wrap;html=1;" parent="1" vertex="1">
          <mxGeometry x="570" y="395" width="51" height="15" as="geometry"/>
        </mxCell>
        <mxCell id="6Af2wgro7MaPZafJDlm1-118" value="" style="endArrow=classic;startArrow=classic;html=1;exitX=1;exitY=0.5;exitDx=0;exitDy=0;entryX=0;entryY=0.5;entryDx=0;entryDy=0;" parent="1" source="6Af2wgro7MaPZafJDlm1-66" target="6Af2wgro7MaPZafJDlm1-115" edge="1">
          <mxGeometry width="50" height="50" relative="1" as="geometry">
            <mxPoint x="540" y="450" as="sourcePoint"/>
            <mxPoint x="560" y="406" as="targetPoint"/>
          </mxGeometry>
        </mxCell>
        <mxCell id="6Af2wgro7MaPZafJDlm1-121" style="edgeStyle=none;rounded=0;orthogonalLoop=1;jettySize=auto;html=1;exitX=1;exitY=0.25;exitDx=0;exitDy=0;entryX=0;entryY=0.5;entryDx=0;entryDy=0;" parent="1" source="6Af2wgro7MaPZafJDlm1-17" target="6Af2wgro7MaPZafJDlm1-119" edge="1">
          <mxGeometry relative="1" as="geometry"/>
        </mxCell>
        <mxCell id="6Af2wgro7MaPZafJDlm1-124" style="edgeStyle=none;rounded=0;orthogonalLoop=1;jettySize=auto;html=1;exitX=0.5;exitY=1;exitDx=0;exitDy=0;entryX=0.5;entryY=0;entryDx=0;entryDy=0;" parent="1" source="6Af2wgro7MaPZafJDlm1-119" target="6Af2wgro7MaPZafJDlm1-123" edge="1">
          <mxGeometry relative="1" as="geometry"/>
        </mxCell>
        <mxCell id="6Af2wgro7MaPZafJDlm1-119" value="&lt;font style=&quot;font-size: 14px&quot;&gt;service&lt;/font&gt;" style="rounded=0;whiteSpace=wrap;html=1;" parent="1" vertex="1">
          <mxGeometry x="698" y="263" width="82" height="40" as="geometry"/>
        </mxCell>
        <mxCell id="6Af2wgro7MaPZafJDlm1-125" style="edgeStyle=none;rounded=0;orthogonalLoop=1;jettySize=auto;html=1;exitX=0;exitY=0.5;exitDx=0;exitDy=0;entryX=1;entryY=0.78;entryDx=0;entryDy=0;entryPerimeter=0;" parent="1" source="6Af2wgro7MaPZafJDlm1-123" target="6Af2wgro7MaPZafJDlm1-17" edge="1">
          <mxGeometry relative="1" as="geometry"/>
        </mxCell>
        <mxCell id="6Af2wgro7MaPZafJDlm1-123" value="&lt;font style=&quot;font-size: 14px&quot;&gt;Async API&lt;/font&gt;" style="rounded=0;whiteSpace=wrap;html=1;" parent="1" vertex="1">
          <mxGeometry x="698" y="395" width="82" height="40" as="geometry"/>
        </mxCell>
        <mxCell id="6Af2wgro7MaPZafJDlm1-127" style="edgeStyle=none;rounded=0;orthogonalLoop=1;jettySize=auto;html=1;exitX=0.5;exitY=1;exitDx=0;exitDy=0;entryX=0.5;entryY=0;entryDx=0;entryDy=0;" parent="1" source="6Af2wgro7MaPZafJDlm1-62" target="6Af2wgro7MaPZafJDlm1-126" edge="1">
          <mxGeometry relative="1" as="geometry"/>
        </mxCell>
        <mxCell id="6Af2wgro7MaPZafJDlm1-126" value="&lt;font style=&quot;font-size: 14px&quot;&gt;viewTest&lt;/font&gt;" style="rounded=0;whiteSpace=wrap;html=1;align=left;" parent="1" vertex="1">
          <mxGeometry x="185" y="435" width="60" height="15" as="geometry"/>
        </mxCell>
        <mxCell id="6Af2wgro7MaPZafJDlm1-128" value="&lt;span style=&quot;font-size: 14px&quot;&gt;reducerTest&lt;/span&gt;" style="rounded=0;whiteSpace=wrap;html=1;" parent="1" vertex="1">
          <mxGeometry x="541" y="432.5" width="80" height="15" as="geometry"/>
        </mxCell>
        <mxCell id="6Af2wgro7MaPZafJDlm1-159" style="edgeStyle=orthogonalEdgeStyle;rounded=0;orthogonalLoop=1;jettySize=auto;html=1;exitX=0.5;exitY=0;exitDx=0;exitDy=0;entryX=0.5;entryY=0;entryDx=0;entryDy=0;" parent="1" edge="1">
          <mxGeometry relative="1" as="geometry">
            <mxPoint x="415" y="524" as="targetPoint"/>
            <mxPoint x="415" y="490" as="sourcePoint"/>
            <Array as="points">
              <mxPoint x="415" y="480"/>
              <mxPoint x="415" y="480"/>
            </Array>
          </mxGeometry>
        </mxCell>
        <mxCell id="6Af2wgro7MaPZafJDlm1-137" value="&lt;span style=&quot;font-size: 14px&quot;&gt;Storage&lt;/span&gt;" style="rounded=0;whiteSpace=wrap;html=1;" parent="1" vertex="1">
          <mxGeometry x="91.5" y="524" width="90" height="30" as="geometry"/>
        </mxCell>
        <mxCell id="6Af2wgro7MaPZafJDlm1-144" style="edgeStyle=orthogonalEdgeStyle;rounded=0;orthogonalLoop=1;jettySize=auto;html=1;exitX=0.5;exitY=1;exitDx=0;exitDy=0;entryX=0.5;entryY=0;entryDx=0;entryDy=0;" parent="1" source="6Af2wgro7MaPZafJDlm1-138" target="6Af2wgro7MaPZafJDlm1-141" edge="1">
          <mxGeometry relative="1" as="geometry">
            <Array as="points">
              <mxPoint x="206.5" y="627"/>
              <mxPoint x="128.5" y="627"/>
            </Array>
          </mxGeometry>
        </mxCell>
        <mxCell id="6Af2wgro7MaPZafJDlm1-170" style="edgeStyle=orthogonalEdgeStyle;rounded=0;orthogonalLoop=1;jettySize=auto;html=1;exitX=0.5;exitY=1;exitDx=0;exitDy=0;" parent="1" source="6Af2wgro7MaPZafJDlm1-138" target="6Af2wgro7MaPZafJDlm1-160" edge="1">
          <mxGeometry relative="1" as="geometry">
            <Array as="points">
              <mxPoint x="207" y="627"/>
              <mxPoint x="294" y="627"/>
            </Array>
          </mxGeometry>
        </mxCell>
        <mxCell id="6Af2wgro7MaPZafJDlm1-138" value="&lt;font style=&quot;font-size: 14px&quot;&gt;User1 Data&lt;/font&gt;" style="shape=internalStorage;whiteSpace=wrap;html=1;backgroundOutline=1;align=center;dx=9;dy=12;" parent="1" vertex="1">
          <mxGeometry x="159" y="570" width="95" height="40" as="geometry"/>
        </mxCell>
        <mxCell id="6Af2wgro7MaPZafJDlm1-141" value="&lt;font style=&quot;font-size: 14px&quot;&gt;session &lt;br&gt;storage&lt;/font&gt;" style="shape=internalStorage;whiteSpace=wrap;html=1;backgroundOutline=1;align=center;dx=9;dy=12;" parent="1" vertex="1">
          <mxGeometry x="94.5" y="647" width="68" height="60" as="geometry"/>
        </mxCell>
        <mxCell id="6Af2wgro7MaPZafJDlm1-148" style="edgeStyle=orthogonalEdgeStyle;rounded=0;orthogonalLoop=1;jettySize=auto;html=1;exitX=0.5;exitY=1;exitDx=0;exitDy=0;entryX=0.5;entryY=0;entryDx=0;entryDy=0;" parent="1" source="6Af2wgro7MaPZafJDlm1-138" target="6Af2wgro7MaPZafJDlm1-143" edge="1">
          <mxGeometry relative="1" as="geometry">
            <Array as="points">
              <mxPoint x="206.5" y="640"/>
              <mxPoint x="206.5" y="640"/>
            </Array>
          </mxGeometry>
        </mxCell>
        <mxCell id="6Af2wgro7MaPZafJDlm1-143" value="&lt;font style=&quot;font-size: 14px&quot;&gt;local&lt;br&gt;storage&lt;/font&gt;" style="shape=internalStorage;whiteSpace=wrap;html=1;backgroundOutline=1;align=center;dx=9;dy=12;" parent="1" vertex="1">
          <mxGeometry x="174" y="647" width="65" height="60" as="geometry"/>
        </mxCell>
        <mxCell id="6Af2wgro7MaPZafJDlm1-149" value="......" style="rounded=0;whiteSpace=wrap;html=1;align=center;dashed=1;" parent="1" vertex="1">
          <mxGeometry x="351.5" y="622" width="60" height="25" as="geometry"/>
        </mxCell>
        <mxCell id="6Af2wgro7MaPZafJDlm1-164" style="edgeStyle=orthogonalEdgeStyle;rounded=0;orthogonalLoop=1;jettySize=auto;html=1;exitX=0.5;exitY=1;exitDx=0;exitDy=0;entryX=0.5;entryY=0;entryDx=0;entryDy=0;" parent="1" source="6Af2wgro7MaPZafJDlm1-150" target="6Af2wgro7MaPZafJDlm1-152" edge="1">
          <mxGeometry relative="1" as="geometry"/>
        </mxCell>
        <mxCell id="6Af2wgro7MaPZafJDlm1-171" style="edgeStyle=orthogonalEdgeStyle;rounded=0;orthogonalLoop=1;jettySize=auto;html=1;exitX=0.5;exitY=1;exitDx=0;exitDy=0;entryX=0.5;entryY=0;entryDx=0;entryDy=0;" parent="1" source="6Af2wgro7MaPZafJDlm1-150" target="6Af2wgro7MaPZafJDlm1-151" edge="1">
          <mxGeometry relative="1" as="geometry">
            <Array as="points">
              <mxPoint x="605" y="627"/>
              <mxPoint x="498" y="627"/>
            </Array>
          </mxGeometry>
        </mxCell>
        <mxCell id="6Af2wgro7MaPZafJDlm1-172" style="edgeStyle=orthogonalEdgeStyle;rounded=0;orthogonalLoop=1;jettySize=auto;html=1;exitX=0.5;exitY=1;exitDx=0;exitDy=0;entryX=0.5;entryY=0;entryDx=0;entryDy=0;" parent="1" source="6Af2wgro7MaPZafJDlm1-150" target="6Af2wgro7MaPZafJDlm1-162" edge="1">
          <mxGeometry relative="1" as="geometry">
            <Array as="points">
              <mxPoint x="605" y="627"/>
              <mxPoint x="697" y="627"/>
            </Array>
          </mxGeometry>
        </mxCell>
        <mxCell id="6Af2wgro7MaPZafJDlm1-150" value="&lt;font style=&quot;font-size: 14px&quot;&gt;User n Data&lt;/font&gt;" style="shape=internalStorage;whiteSpace=wrap;html=1;backgroundOutline=1;align=center;dx=9;dy=12;" parent="1" vertex="1">
          <mxGeometry x="557" y="570" width="95" height="40" as="geometry"/>
        </mxCell>
        <mxCell id="6Af2wgro7MaPZafJDlm1-151" value="&lt;font style=&quot;font-size: 14px&quot;&gt;session &lt;br&gt;storage&lt;/font&gt;" style="shape=internalStorage;whiteSpace=wrap;html=1;backgroundOutline=1;align=center;dx=9;dy=12;" parent="1" vertex="1">
          <mxGeometry x="450.5" y="647" width="95" height="60" as="geometry"/>
        </mxCell>
        <mxCell id="6Af2wgro7MaPZafJDlm1-152" value="&lt;font style=&quot;font-size: 14px&quot;&gt;local&lt;br&gt;storage&lt;/font&gt;" style="shape=internalStorage;whiteSpace=wrap;html=1;backgroundOutline=1;align=center;dx=9;dy=12;" parent="1" vertex="1">
          <mxGeometry x="557" y="647" width="95" height="60" as="geometry"/>
        </mxCell>
        <mxCell id="6Af2wgro7MaPZafJDlm1-160" value="&lt;span style=&quot;font-size: 14px&quot;&gt;indexDB&lt;/span&gt;" style="shape=internalStorage;whiteSpace=wrap;html=1;backgroundOutline=1;align=center;dx=9;dy=12;" parent="1" vertex="1">
          <mxGeometry x="256.5" y="647" width="75" height="60" as="geometry"/>
        </mxCell>
        <mxCell id="6Af2wgro7MaPZafJDlm1-162" value="&lt;span style=&quot;font-size: 14px&quot;&gt;indexDB&lt;/span&gt;" style="shape=internalStorage;whiteSpace=wrap;html=1;backgroundOutline=1;align=center;dx=9;dy=12;" parent="1" vertex="1">
          <mxGeometry x="659.5" y="647" width="75" height="60" as="geometry"/>
        </mxCell>
        <mxCell id="6Af2wgro7MaPZafJDlm1-166" value="" style="rounded=0;whiteSpace=wrap;html=1;fillColor=none;" parent="1" vertex="1">
          <mxGeometry x="91.5" y="524" width="650" height="200" as="geometry"/>
        </mxCell>
      </root>
    </mxGraphModel>
  </diagram>
  <diagram id="3g7rs8XaV-dQ0H0I2YBZ" name="系统模块划分图">
    <mxGraphModel dx="946" dy="591" grid="1" gridSize="10" guides="1" tooltips="1" connect="1" arrows="1" fold="1" page="1" pageScale="1" pageWidth="827" pageHeight="1169" math="0" shadow="0">
      <root>
        <mxCell id="vye1kwi9wD9lyqn_AnTP-0"/>
        <mxCell id="vye1kwi9wD9lyqn_AnTP-1" parent="vye1kwi9wD9lyqn_AnTP-0"/>
        <mxCell id="4vS0ZjOwSv0PkLCYgHha-42" style="edgeStyle=orthogonalEdgeStyle;rounded=0;orthogonalLoop=1;jettySize=auto;html=1;exitX=0.5;exitY=1;exitDx=0;exitDy=0;entryX=0.5;entryY=0;entryDx=0;entryDy=0;fontColor=#000000;" parent="vye1kwi9wD9lyqn_AnTP-1" source="4vS0ZjOwSv0PkLCYgHha-0" target="4vS0ZjOwSv0PkLCYgHha-1" edge="1">
          <mxGeometry relative="1" as="geometry"/>
        </mxCell>
        <mxCell id="4vS0ZjOwSv0PkLCYgHha-43" style="edgeStyle=orthogonalEdgeStyle;rounded=0;orthogonalLoop=1;jettySize=auto;html=1;exitX=0.5;exitY=1;exitDx=0;exitDy=0;entryX=0.5;entryY=0;entryDx=0;entryDy=0;fontColor=#000000;" parent="vye1kwi9wD9lyqn_AnTP-1" source="4vS0ZjOwSv0PkLCYgHha-0" target="4vS0ZjOwSv0PkLCYgHha-21" edge="1">
          <mxGeometry relative="1" as="geometry"/>
        </mxCell>
        <mxCell id="4vS0ZjOwSv0PkLCYgHha-44" style="edgeStyle=orthogonalEdgeStyle;rounded=0;orthogonalLoop=1;jettySize=auto;html=1;exitX=0.5;exitY=1;exitDx=0;exitDy=0;entryX=0.5;entryY=0;entryDx=0;entryDy=0;fontColor=#000000;" parent="vye1kwi9wD9lyqn_AnTP-1" source="4vS0ZjOwSv0PkLCYgHha-0" target="4vS0ZjOwSv0PkLCYgHha-8" edge="1">
          <mxGeometry relative="1" as="geometry"/>
        </mxCell>
        <mxCell id="4vS0ZjOwSv0PkLCYgHha-45" style="edgeStyle=orthogonalEdgeStyle;rounded=0;orthogonalLoop=1;jettySize=auto;html=1;exitX=0.5;exitY=1;exitDx=0;exitDy=0;entryX=0.5;entryY=0;entryDx=0;entryDy=0;fontColor=#000000;" parent="vye1kwi9wD9lyqn_AnTP-1" source="4vS0ZjOwSv0PkLCYgHha-0" target="4vS0ZjOwSv0PkLCYgHha-9" edge="1">
          <mxGeometry relative="1" as="geometry"/>
        </mxCell>
        <mxCell id="4vS0ZjOwSv0PkLCYgHha-46" style="edgeStyle=orthogonalEdgeStyle;rounded=0;orthogonalLoop=1;jettySize=auto;html=1;exitX=0.5;exitY=1;exitDx=0;exitDy=0;entryX=0.5;entryY=0;entryDx=0;entryDy=0;fontColor=#000000;" parent="vye1kwi9wD9lyqn_AnTP-1" source="4vS0ZjOwSv0PkLCYgHha-0" target="4vS0ZjOwSv0PkLCYgHha-10" edge="1">
          <mxGeometry relative="1" as="geometry"/>
        </mxCell>
        <mxCell id="4vS0ZjOwSv0PkLCYgHha-47" style="edgeStyle=orthogonalEdgeStyle;rounded=0;orthogonalLoop=1;jettySize=auto;html=1;exitX=0.5;exitY=1;exitDx=0;exitDy=0;fontColor=#000000;" parent="vye1kwi9wD9lyqn_AnTP-1" source="4vS0ZjOwSv0PkLCYgHha-0" target="4vS0ZjOwSv0PkLCYgHha-11" edge="1">
          <mxGeometry relative="1" as="geometry"/>
        </mxCell>
        <mxCell id="4vS0ZjOwSv0PkLCYgHha-0" value="&lt;font style=&quot;font-size: 18px&quot;&gt;系统前端模块划分&lt;/font&gt;" style="rounded=0;whiteSpace=wrap;html=1;" parent="vye1kwi9wD9lyqn_AnTP-1" vertex="1">
          <mxGeometry x="260" y="120" width="310" height="40" as="geometry"/>
        </mxCell>
        <mxCell id="4vS0ZjOwSv0PkLCYgHha-1" value="" style="rounded=0;labelPosition=left;verticalLabelPosition=middle;align=left;verticalAlign=middle;html=1;whiteSpace=wrap;" parent="vye1kwi9wD9lyqn_AnTP-1" vertex="1">
          <mxGeometry x="200" y="200" width="40" height="200" as="geometry"/>
        </mxCell>
        <mxCell id="4vS0ZjOwSv0PkLCYgHha-8" value="" style="rounded=0;whiteSpace=wrap;html=1;" parent="vye1kwi9wD9lyqn_AnTP-1" vertex="1">
          <mxGeometry x="360" y="200" width="40" height="200" as="geometry"/>
        </mxCell>
        <mxCell id="4vS0ZjOwSv0PkLCYgHha-9" value="" style="rounded=0;whiteSpace=wrap;html=1;" parent="vye1kwi9wD9lyqn_AnTP-1" vertex="1">
          <mxGeometry x="440" y="200" width="40" height="200" as="geometry"/>
        </mxCell>
        <mxCell id="4vS0ZjOwSv0PkLCYgHha-10" value="" style="rounded=0;whiteSpace=wrap;html=1;" parent="vye1kwi9wD9lyqn_AnTP-1" vertex="1">
          <mxGeometry x="520" y="200" width="40" height="200" as="geometry"/>
        </mxCell>
        <mxCell id="4vS0ZjOwSv0PkLCYgHha-11" value="" style="rounded=0;whiteSpace=wrap;html=1;" parent="vye1kwi9wD9lyqn_AnTP-1" vertex="1">
          <mxGeometry x="600" y="200" width="40" height="200" as="geometry"/>
        </mxCell>
        <mxCell id="4vS0ZjOwSv0PkLCYgHha-13" value="&lt;br style=&quot;font-size: 18px ; text-align: left&quot;&gt;&lt;br style=&quot;font-size: 18px ; text-align: left&quot;&gt;&lt;br style=&quot;font-size: 18px ; text-align: left&quot;&gt;&lt;br style=&quot;font-size: 18px ; text-align: left&quot;&gt;&lt;br style=&quot;font-size: 18px ; text-align: left&quot;&gt;&lt;br style=&quot;font-size: 18px ; text-align: left&quot;&gt;&lt;span style=&quot;font-size: 18px ; text-align: left&quot;&gt;对账单列表模块&lt;/span&gt;" style="text;html=1;strokeColor=none;fillColor=none;align=center;verticalAlign=middle;whiteSpace=wrap;rounded=0;" parent="vye1kwi9wD9lyqn_AnTP-1" vertex="1">
          <mxGeometry x="210" y="230" width="20" height="20" as="geometry"/>
        </mxCell>
        <mxCell id="4vS0ZjOwSv0PkLCYgHha-21" value="" style="rounded=0;labelPosition=left;verticalLabelPosition=middle;align=left;verticalAlign=middle;html=1;whiteSpace=wrap;" parent="vye1kwi9wD9lyqn_AnTP-1" vertex="1">
          <mxGeometry x="280" y="200" width="40" height="200" as="geometry"/>
        </mxCell>
        <mxCell id="4vS0ZjOwSv0PkLCYgHha-30" value="&lt;span style=&quot;text-align: left ; white-space: nowrap&quot;&gt;&lt;font style=&quot;font-size: 18px&quot;&gt;形&lt;br&gt;式&lt;br&gt;发&lt;br&gt;票&lt;br&gt;列&lt;br&gt;表&lt;br&gt;模&lt;br&gt;块&lt;/font&gt;&lt;/span&gt;" style="text;html=1;strokeColor=none;fillColor=none;align=center;verticalAlign=middle;whiteSpace=wrap;rounded=0;fontColor=#000000;" parent="vye1kwi9wD9lyqn_AnTP-1" vertex="1">
          <mxGeometry x="285" y="290" width="30" height="30" as="geometry"/>
        </mxCell>
        <mxCell id="4vS0ZjOwSv0PkLCYgHha-35" value="&lt;font style=&quot;font-size: 18px&quot;&gt;形&lt;br&gt;式&lt;br&gt;发&lt;br&gt;票&lt;br&gt;草&lt;br&gt;稿&lt;br&gt;模&lt;br&gt;块&lt;/font&gt;" style="text;html=1;fontColor=#000000;" parent="vye1kwi9wD9lyqn_AnTP-1" vertex="1">
          <mxGeometry x="370" y="212.5" width="120" height="30" as="geometry"/>
        </mxCell>
        <mxCell id="4vS0ZjOwSv0PkLCYgHha-36" value="&lt;span style=&quot;text-align: left ; white-space: nowrap&quot;&gt;&lt;font style=&quot;font-size: 18px&quot;&gt;形&lt;br&gt;式&lt;br&gt;发&lt;br&gt;票&lt;br&gt;协&lt;br&gt;同&lt;br&gt;模&lt;br&gt;块&lt;/font&gt;&lt;/span&gt;" style="text;html=1;strokeColor=none;fillColor=none;align=center;verticalAlign=middle;whiteSpace=wrap;rounded=0;fontColor=#000000;" parent="vye1kwi9wD9lyqn_AnTP-1" vertex="1">
          <mxGeometry x="440" y="295" width="40" height="20" as="geometry"/>
        </mxCell>
        <mxCell id="4vS0ZjOwSv0PkLCYgHha-37" value="&lt;span style=&quot;text-align: left ; white-space: nowrap&quot;&gt;&lt;font style=&quot;font-size: 18px&quot;&gt;形&lt;br&gt;式&lt;br&gt;发&lt;br&gt;票&lt;br&gt;预&lt;br&gt;览&lt;br&gt;模&lt;br&gt;块&lt;/font&gt;&lt;/span&gt;" style="text;html=1;strokeColor=none;fillColor=none;align=center;verticalAlign=middle;whiteSpace=wrap;rounded=0;fontColor=#000000;" parent="vye1kwi9wD9lyqn_AnTP-1" vertex="1">
          <mxGeometry x="520" y="290" width="40" height="20" as="geometry"/>
        </mxCell>
        <mxCell id="4vS0ZjOwSv0PkLCYgHha-40" value="&lt;span style=&quot;text-align: left ; white-space: nowrap&quot;&gt;&lt;font style=&quot;font-size: 18px&quot;&gt;对&lt;br&gt;账&lt;br&gt;协&lt;br&gt;同&lt;br&gt;配&lt;br&gt;置&lt;br&gt;模&lt;br&gt;块&lt;/font&gt;&lt;/span&gt;" style="text;html=1;strokeColor=none;fillColor=none;align=center;verticalAlign=middle;whiteSpace=wrap;rounded=0;fontColor=#000000;" parent="vye1kwi9wD9lyqn_AnTP-1" vertex="1">
          <mxGeometry x="600" y="295" width="40" height="20" as="geometry"/>
        </mxCell>
      </root>
    </mxGraphModel>
  </diagram>
  <diagram id="QObYFX42yR3XmnQFGiFy" name="对账单列表活动图">
    <mxGraphModel dx="946" dy="591" grid="1" gridSize="10" guides="1" tooltips="1" connect="1" arrows="1" fold="1" page="1" pageScale="1" pageWidth="827" pageHeight="1169" math="0" shadow="0">
      <root>
        <mxCell id="8iSQsT3i5JUyxaiXaDEv-0"/>
        <mxCell id="8iSQsT3i5JUyxaiXaDEv-1" parent="8iSQsT3i5JUyxaiXaDEv-0"/>
        <mxCell id="6RNhsYlKehxXHHc33EAZ-2" style="edgeStyle=orthogonalEdgeStyle;rounded=0;orthogonalLoop=1;jettySize=auto;html=1;exitX=1;exitY=0.5;exitDx=0;exitDy=0;entryX=0;entryY=0.5;entryDx=0;entryDy=0;" parent="8iSQsT3i5JUyxaiXaDEv-1" source="6RNhsYlKehxXHHc33EAZ-3" target="6RNhsYlKehxXHHc33EAZ-41" edge="1">
          <mxGeometry relative="1" as="geometry"/>
        </mxCell>
        <mxCell id="TE1ToNbxEKz8UEBUrwd--1" style="edgeStyle=orthogonalEdgeStyle;rounded=0;orthogonalLoop=1;jettySize=auto;html=1;exitX=0.5;exitY=1;exitDx=0;exitDy=0;" parent="8iSQsT3i5JUyxaiXaDEv-1" source="6RNhsYlKehxXHHc33EAZ-3" target="6RNhsYlKehxXHHc33EAZ-29" edge="1">
          <mxGeometry relative="1" as="geometry">
            <Array as="points">
              <mxPoint x="311" y="485"/>
              <mxPoint x="430" y="485"/>
            </Array>
          </mxGeometry>
        </mxCell>
        <mxCell id="TE1ToNbxEKz8UEBUrwd--2" style="edgeStyle=orthogonalEdgeStyle;rounded=0;orthogonalLoop=1;jettySize=auto;html=1;exitX=0.5;exitY=1;exitDx=0;exitDy=0;" parent="8iSQsT3i5JUyxaiXaDEv-1" source="6RNhsYlKehxXHHc33EAZ-3" target="6RNhsYlKehxXHHc33EAZ-36" edge="1">
          <mxGeometry relative="1" as="geometry">
            <Array as="points">
              <mxPoint x="311" y="485"/>
              <mxPoint x="169" y="485"/>
            </Array>
          </mxGeometry>
        </mxCell>
        <mxCell id="TE1ToNbxEKz8UEBUrwd--10" style="edgeStyle=orthogonalEdgeStyle;rounded=0;orthogonalLoop=1;jettySize=auto;html=1;exitX=0.5;exitY=1;exitDx=0;exitDy=0;entryX=0.5;entryY=0;entryDx=0;entryDy=0;" parent="8iSQsT3i5JUyxaiXaDEv-1" source="6RNhsYlKehxXHHc33EAZ-3" target="TE1ToNbxEKz8UEBUrwd--3" edge="1">
          <mxGeometry relative="1" as="geometry"/>
        </mxCell>
        <mxCell id="6RNhsYlKehxXHHc33EAZ-3" value="" style="rounded=0;whiteSpace=wrap;html=1;fillColor=#000000;" parent="8iSQsT3i5JUyxaiXaDEv-1" vertex="1">
          <mxGeometry x="251" y="445" width="120" height="10" as="geometry"/>
        </mxCell>
        <mxCell id="6RNhsYlKehxXHHc33EAZ-4" style="edgeStyle=orthogonalEdgeStyle;rounded=0;orthogonalLoop=1;jettySize=auto;html=1;exitX=0.5;exitY=1;exitDx=0;exitDy=0;" parent="8iSQsT3i5JUyxaiXaDEv-1" source="6RNhsYlKehxXHHc33EAZ-5" target="6RNhsYlKehxXHHc33EAZ-7" edge="1">
          <mxGeometry relative="1" as="geometry"/>
        </mxCell>
        <mxCell id="6RNhsYlKehxXHHc33EAZ-5" value="" style="ellipse;whiteSpace=wrap;html=1;aspect=fixed;fillColor=#000000;" parent="8iSQsT3i5JUyxaiXaDEv-1" vertex="1">
          <mxGeometry x="294" y="65" width="30" height="30" as="geometry"/>
        </mxCell>
        <mxCell id="6RNhsYlKehxXHHc33EAZ-6" style="edgeStyle=orthogonalEdgeStyle;rounded=0;orthogonalLoop=1;jettySize=auto;html=1;exitX=0.5;exitY=1;exitDx=0;exitDy=0;" parent="8iSQsT3i5JUyxaiXaDEv-1" source="6RNhsYlKehxXHHc33EAZ-7" edge="1">
          <mxGeometry relative="1" as="geometry">
            <mxPoint x="309" y="215" as="targetPoint"/>
          </mxGeometry>
        </mxCell>
        <mxCell id="6RNhsYlKehxXHHc33EAZ-7" value="&lt;font style=&quot;font-size: 14px&quot;&gt;获取页码、查询和筛选等参数&lt;/font&gt;" style="rounded=1;whiteSpace=wrap;html=1;fillColor=none;" parent="8iSQsT3i5JUyxaiXaDEv-1" vertex="1">
          <mxGeometry x="249" y="125" width="120" height="60" as="geometry"/>
        </mxCell>
        <mxCell id="6RNhsYlKehxXHHc33EAZ-8" style="edgeStyle=orthogonalEdgeStyle;rounded=0;orthogonalLoop=1;jettySize=auto;html=1;exitX=0.5;exitY=1;exitDx=0;exitDy=0;entryX=0.5;entryY=0;entryDx=0;entryDy=0;" parent="8iSQsT3i5JUyxaiXaDEv-1" source="6RNhsYlKehxXHHc33EAZ-9" target="6RNhsYlKehxXHHc33EAZ-12" edge="1">
          <mxGeometry relative="1" as="geometry"/>
        </mxCell>
        <mxCell id="6RNhsYlKehxXHHc33EAZ-9" value="&lt;span style=&quot;font-size: 14px&quot;&gt;对账单列表数据&lt;/span&gt;" style="rounded=1;whiteSpace=wrap;html=1;fillColor=none;" parent="8iSQsT3i5JUyxaiXaDEv-1" vertex="1">
          <mxGeometry x="249" y="215" width="120" height="60" as="geometry"/>
        </mxCell>
        <mxCell id="6RNhsYlKehxXHHc33EAZ-10" style="edgeStyle=orthogonalEdgeStyle;rounded=0;orthogonalLoop=1;jettySize=auto;html=1;exitX=0.5;exitY=1;exitDx=0;exitDy=0;entryX=0.5;entryY=0;entryDx=0;entryDy=0;" parent="8iSQsT3i5JUyxaiXaDEv-1" source="6RNhsYlKehxXHHc33EAZ-12" target="6RNhsYlKehxXHHc33EAZ-14" edge="1">
          <mxGeometry relative="1" as="geometry">
            <mxPoint x="309" y="375" as="targetPoint"/>
          </mxGeometry>
        </mxCell>
        <mxCell id="6RNhsYlKehxXHHc33EAZ-11" style="edgeStyle=orthogonalEdgeStyle;rounded=0;orthogonalLoop=1;jettySize=auto;html=1;exitX=1;exitY=0.5;exitDx=0;exitDy=0;entryX=0.5;entryY=0;entryDx=0;entryDy=0;" parent="8iSQsT3i5JUyxaiXaDEv-1" source="6RNhsYlKehxXHHc33EAZ-12" target="6RNhsYlKehxXHHc33EAZ-32" edge="1">
          <mxGeometry relative="1" as="geometry">
            <mxPoint x="450" y="375" as="targetPoint"/>
          </mxGeometry>
        </mxCell>
        <mxCell id="6RNhsYlKehxXHHc33EAZ-12" value="" style="rhombus;whiteSpace=wrap;html=1;fillColor=none;" parent="8iSQsT3i5JUyxaiXaDEv-1" vertex="1">
          <mxGeometry x="289" y="292" width="42" height="40" as="geometry"/>
        </mxCell>
        <mxCell id="6RNhsYlKehxXHHc33EAZ-13" style="edgeStyle=orthogonalEdgeStyle;rounded=0;orthogonalLoop=1;jettySize=auto;html=1;exitX=0.5;exitY=1;exitDx=0;exitDy=0;" parent="8iSQsT3i5JUyxaiXaDEv-1" source="6RNhsYlKehxXHHc33EAZ-14" edge="1">
          <mxGeometry relative="1" as="geometry">
            <mxPoint x="310" y="455" as="targetPoint"/>
          </mxGeometry>
        </mxCell>
        <mxCell id="6RNhsYlKehxXHHc33EAZ-14" value="&lt;span style=&quot;font-size: 14px&quot;&gt;渲染对账单数据&lt;/span&gt;" style="rounded=1;whiteSpace=wrap;html=1;fillColor=none;" parent="8iSQsT3i5JUyxaiXaDEv-1" vertex="1">
          <mxGeometry x="249" y="355.5" width="122" height="60" as="geometry"/>
        </mxCell>
        <mxCell id="6RNhsYlKehxXHHc33EAZ-15" value="数据不为空" style="text;html=1;" parent="8iSQsT3i5JUyxaiXaDEv-1" vertex="1">
          <mxGeometry x="214" y="320" width="70" height="30" as="geometry"/>
        </mxCell>
        <mxCell id="6RNhsYlKehxXHHc33EAZ-16" style="edgeStyle=orthogonalEdgeStyle;rounded=0;orthogonalLoop=1;jettySize=auto;html=1;exitX=0;exitY=0.25;exitDx=0;exitDy=0;entryX=0.077;entryY=0.3;entryDx=0;entryDy=0;entryPerimeter=0;" parent="8iSQsT3i5JUyxaiXaDEv-1" source="6RNhsYlKehxXHHc33EAZ-3" target="6RNhsYlKehxXHHc33EAZ-3" edge="1">
          <mxGeometry relative="1" as="geometry"/>
        </mxCell>
        <mxCell id="6RNhsYlKehxXHHc33EAZ-17" style="edgeStyle=orthogonalEdgeStyle;rounded=0;orthogonalLoop=1;jettySize=auto;html=1;exitX=1;exitY=0.5;exitDx=0;exitDy=0;entryX=0;entryY=0.5;entryDx=0;entryDy=0;" parent="8iSQsT3i5JUyxaiXaDEv-1" source="6RNhsYlKehxXHHc33EAZ-18" target="6RNhsYlKehxXHHc33EAZ-25" edge="1">
          <mxGeometry relative="1" as="geometry"/>
        </mxCell>
        <mxCell id="6RNhsYlKehxXHHc33EAZ-18" value="&lt;span style=&quot;text-align: left ; white-space: nowrap&quot;&gt;&lt;font style=&quot;font-size: 14px&quot;&gt;更改筛选/查询&lt;br&gt;条件或页码&lt;br&gt;&lt;/font&gt;&lt;/span&gt;" style="rounded=1;whiteSpace=wrap;html=1;fillColor=none;" parent="8iSQsT3i5JUyxaiXaDEv-1" vertex="1">
          <mxGeometry x="437" y="503.5" width="120" height="60" as="geometry"/>
        </mxCell>
        <mxCell id="6RNhsYlKehxXHHc33EAZ-19" style="edgeStyle=orthogonalEdgeStyle;rounded=0;orthogonalLoop=1;jettySize=auto;html=1;exitX=0;exitY=0.5;exitDx=0;exitDy=0;entryX=1;entryY=0.5;entryDx=0;entryDy=0;" parent="8iSQsT3i5JUyxaiXaDEv-1" source="6RNhsYlKehxXHHc33EAZ-20" target="6RNhsYlKehxXHHc33EAZ-7" edge="1">
          <mxGeometry relative="1" as="geometry"/>
        </mxCell>
        <mxCell id="6RNhsYlKehxXHHc33EAZ-20" value="&lt;span style=&quot;text-align: left ; white-space: nowrap&quot;&gt;&lt;font style=&quot;font-size: 14px&quot;&gt;渲染对应组件&lt;br&gt;保存更改后参数&lt;/font&gt;&lt;/span&gt;" style="rounded=1;whiteSpace=wrap;html=1;fillColor=none;" parent="8iSQsT3i5JUyxaiXaDEv-1" vertex="1">
          <mxGeometry x="547" y="125" width="120" height="60" as="geometry"/>
        </mxCell>
        <mxCell id="6RNhsYlKehxXHHc33EAZ-22" value="" style="ellipse;html=1;shape=endState;fillColor=#000000;strokeColor=#000000;" parent="8iSQsT3i5JUyxaiXaDEv-1" vertex="1">
          <mxGeometry x="296" y="815" width="30" height="30" as="geometry"/>
        </mxCell>
        <mxCell id="6RNhsYlKehxXHHc33EAZ-23" style="edgeStyle=orthogonalEdgeStyle;rounded=0;orthogonalLoop=1;jettySize=auto;html=1;exitX=0.5;exitY=0;exitDx=0;exitDy=0;entryX=0.5;entryY=1;entryDx=0;entryDy=0;" parent="8iSQsT3i5JUyxaiXaDEv-1" source="6RNhsYlKehxXHHc33EAZ-25" target="6RNhsYlKehxXHHc33EAZ-20" edge="1">
          <mxGeometry relative="1" as="geometry">
            <Array as="points">
              <mxPoint x="607" y="514"/>
            </Array>
          </mxGeometry>
        </mxCell>
        <mxCell id="TE1ToNbxEKz8UEBUrwd--15" style="edgeStyle=orthogonalEdgeStyle;rounded=0;orthogonalLoop=1;jettySize=auto;html=1;exitX=0.5;exitY=1;exitDx=0;exitDy=0;entryX=1;entryY=0.5;entryDx=0;entryDy=0;" parent="8iSQsT3i5JUyxaiXaDEv-1" source="6RNhsYlKehxXHHc33EAZ-25" target="6RNhsYlKehxXHHc33EAZ-27" edge="1">
          <mxGeometry relative="1" as="geometry"/>
        </mxCell>
        <mxCell id="6RNhsYlKehxXHHc33EAZ-25" value="" style="rhombus;whiteSpace=wrap;html=1;fillColor=none;" parent="8iSQsT3i5JUyxaiXaDEv-1" vertex="1">
          <mxGeometry x="585" y="513.5" width="42" height="40" as="geometry"/>
        </mxCell>
        <mxCell id="6RNhsYlKehxXHHc33EAZ-26" style="edgeStyle=orthogonalEdgeStyle;rounded=0;orthogonalLoop=1;jettySize=auto;html=1;exitX=0.5;exitY=1;exitDx=0;exitDy=0;entryX=0.5;entryY=0;entryDx=0;entryDy=0;" parent="8iSQsT3i5JUyxaiXaDEv-1" source="6RNhsYlKehxXHHc33EAZ-27" target="6RNhsYlKehxXHHc33EAZ-22" edge="1">
          <mxGeometry relative="1" as="geometry"/>
        </mxCell>
        <mxCell id="6RNhsYlKehxXHHc33EAZ-27" value="" style="rounded=0;whiteSpace=wrap;html=1;fillColor=#000000;" parent="8iSQsT3i5JUyxaiXaDEv-1" vertex="1">
          <mxGeometry x="251" y="780" width="120" height="10" as="geometry"/>
        </mxCell>
        <mxCell id="TE1ToNbxEKz8UEBUrwd--17" style="edgeStyle=orthogonalEdgeStyle;rounded=0;orthogonalLoop=1;jettySize=auto;html=1;exitX=0.5;exitY=1;exitDx=0;exitDy=0;entryX=0.5;entryY=0;entryDx=0;entryDy=0;" parent="8iSQsT3i5JUyxaiXaDEv-1" source="6RNhsYlKehxXHHc33EAZ-29" target="6RNhsYlKehxXHHc33EAZ-27" edge="1">
          <mxGeometry relative="1" as="geometry">
            <Array as="points">
              <mxPoint x="429" y="750"/>
              <mxPoint x="311" y="750"/>
            </Array>
          </mxGeometry>
        </mxCell>
        <mxCell id="6RNhsYlKehxXHHc33EAZ-29" value="&lt;span style=&quot;font-size: 14px&quot;&gt;切换到形式发票列表模块&lt;/span&gt;" style="rounded=1;whiteSpace=wrap;html=1;fillColor=none;" parent="8iSQsT3i5JUyxaiXaDEv-1" vertex="1">
          <mxGeometry x="380" y="580" width="97" height="60" as="geometry"/>
        </mxCell>
        <mxCell id="6RNhsYlKehxXHHc33EAZ-30" value="数据为空" style="text;html=1;" parent="8iSQsT3i5JUyxaiXaDEv-1" vertex="1">
          <mxGeometry x="380" y="285" width="90" height="30" as="geometry"/>
        </mxCell>
        <mxCell id="6RNhsYlKehxXHHc33EAZ-31" style="edgeStyle=orthogonalEdgeStyle;rounded=0;orthogonalLoop=1;jettySize=auto;html=1;exitX=0.5;exitY=1;exitDx=0;exitDy=0;entryX=0.5;entryY=0;entryDx=0;entryDy=0;" parent="8iSQsT3i5JUyxaiXaDEv-1" source="6RNhsYlKehxXHHc33EAZ-32" target="6RNhsYlKehxXHHc33EAZ-41" edge="1">
          <mxGeometry relative="1" as="geometry"/>
        </mxCell>
        <mxCell id="6RNhsYlKehxXHHc33EAZ-32" value="&lt;span style=&quot;font-size: 14px&quot;&gt;显示背景提示图片&lt;/span&gt;" style="rounded=1;whiteSpace=wrap;html=1;fillColor=none;" parent="8iSQsT3i5JUyxaiXaDEv-1" vertex="1">
          <mxGeometry x="437" y="350" width="120" height="60" as="geometry"/>
        </mxCell>
        <mxCell id="6RNhsYlKehxXHHc33EAZ-33" value="否" style="text;html=1;resizable=0;points=[];autosize=1;align=left;verticalAlign=top;spacingTop=-4;" parent="8iSQsT3i5JUyxaiXaDEv-1" vertex="1">
          <mxGeometry x="587" y="609" width="30" height="20" as="geometry"/>
        </mxCell>
        <mxCell id="6RNhsYlKehxXHHc33EAZ-34" value="是" style="text;html=1;resizable=0;points=[];autosize=1;align=left;verticalAlign=top;spacingTop=-4;" parent="8iSQsT3i5JUyxaiXaDEv-1" vertex="1">
          <mxGeometry x="577" y="380" width="30" height="20" as="geometry"/>
        </mxCell>
        <mxCell id="6RNhsYlKehxXHHc33EAZ-35" style="edgeStyle=orthogonalEdgeStyle;rounded=0;orthogonalLoop=1;jettySize=auto;html=1;exitX=0.5;exitY=1;exitDx=0;exitDy=0;entryX=0.5;entryY=0;entryDx=0;entryDy=0;" parent="8iSQsT3i5JUyxaiXaDEv-1" source="6RNhsYlKehxXHHc33EAZ-36" target="6RNhsYlKehxXHHc33EAZ-38" edge="1">
          <mxGeometry relative="1" as="geometry"/>
        </mxCell>
        <mxCell id="6RNhsYlKehxXHHc33EAZ-36" value="&lt;span style=&quot;font-size: 14px&quot;&gt;勾选对账单&lt;/span&gt;" style="rounded=1;whiteSpace=wrap;html=1;fillColor=none;" parent="8iSQsT3i5JUyxaiXaDEv-1" vertex="1">
          <mxGeometry x="109" y="503.5" width="120" height="60" as="geometry"/>
        </mxCell>
        <mxCell id="6RNhsYlKehxXHHc33EAZ-37" style="edgeStyle=orthogonalEdgeStyle;rounded=0;orthogonalLoop=1;jettySize=auto;html=1;exitX=0.5;exitY=1;exitDx=0;exitDy=0;entryX=0.5;entryY=0;entryDx=0;entryDy=0;" parent="8iSQsT3i5JUyxaiXaDEv-1" source="6RNhsYlKehxXHHc33EAZ-38" target="6RNhsYlKehxXHHc33EAZ-39" edge="1">
          <mxGeometry relative="1" as="geometry"/>
        </mxCell>
        <mxCell id="6RNhsYlKehxXHHc33EAZ-38" value="&lt;span style=&quot;font-size: 14px&quot;&gt;渲染统计组件&lt;/span&gt;" style="rounded=1;whiteSpace=wrap;html=1;fillColor=none;" parent="8iSQsT3i5JUyxaiXaDEv-1" vertex="1">
          <mxGeometry x="110" y="579" width="120" height="60" as="geometry"/>
        </mxCell>
        <mxCell id="TE1ToNbxEKz8UEBUrwd--0" style="edgeStyle=orthogonalEdgeStyle;rounded=0;orthogonalLoop=1;jettySize=auto;html=1;exitX=0.5;exitY=1;exitDx=0;exitDy=0;entryX=0.5;entryY=0;entryDx=0;entryDy=0;" parent="8iSQsT3i5JUyxaiXaDEv-1" source="6RNhsYlKehxXHHc33EAZ-39" target="6RNhsYlKehxXHHc33EAZ-27" edge="1">
          <mxGeometry relative="1" as="geometry">
            <Array as="points">
              <mxPoint x="169" y="750"/>
              <mxPoint x="311" y="750"/>
            </Array>
          </mxGeometry>
        </mxCell>
        <mxCell id="6RNhsYlKehxXHHc33EAZ-39" value="&lt;span style=&quot;font-size: 14px&quot;&gt;开具形式发票或作废对账单&lt;/span&gt;" style="rounded=1;whiteSpace=wrap;html=1;fillColor=none;" parent="8iSQsT3i5JUyxaiXaDEv-1" vertex="1">
          <mxGeometry x="109" y="654.5" width="120" height="60" as="geometry"/>
        </mxCell>
        <mxCell id="6RNhsYlKehxXHHc33EAZ-40" style="edgeStyle=orthogonalEdgeStyle;rounded=0;orthogonalLoop=1;jettySize=auto;html=1;exitX=0.5;exitY=1;exitDx=0;exitDy=0;entryX=0.5;entryY=0;entryDx=0;entryDy=0;" parent="8iSQsT3i5JUyxaiXaDEv-1" source="6RNhsYlKehxXHHc33EAZ-41" target="6RNhsYlKehxXHHc33EAZ-18" edge="1">
          <mxGeometry relative="1" as="geometry"/>
        </mxCell>
        <mxCell id="6RNhsYlKehxXHHc33EAZ-41" value="" style="rhombus;whiteSpace=wrap;html=1;fillColor=none;" parent="8iSQsT3i5JUyxaiXaDEv-1" vertex="1">
          <mxGeometry x="476" y="430" width="42" height="40" as="geometry"/>
        </mxCell>
        <mxCell id="TE1ToNbxEKz8UEBUrwd--5" style="edgeStyle=orthogonalEdgeStyle;rounded=0;orthogonalLoop=1;jettySize=auto;html=1;exitX=0.5;exitY=1;exitDx=0;exitDy=0;entryX=0.5;entryY=0;entryDx=0;entryDy=0;" parent="8iSQsT3i5JUyxaiXaDEv-1" source="TE1ToNbxEKz8UEBUrwd--3" target="TE1ToNbxEKz8UEBUrwd--4" edge="1">
          <mxGeometry relative="1" as="geometry"/>
        </mxCell>
        <mxCell id="TE1ToNbxEKz8UEBUrwd--3" value="&lt;span style=&quot;font-size: 14px&quot;&gt;添加配置列&lt;/span&gt;" style="rounded=1;whiteSpace=wrap;html=1;fillColor=none;" parent="8iSQsT3i5JUyxaiXaDEv-1" vertex="1">
          <mxGeometry x="251" y="503.5" width="120" height="60" as="geometry"/>
        </mxCell>
        <mxCell id="TE1ToNbxEKz8UEBUrwd--13" style="edgeStyle=orthogonalEdgeStyle;rounded=0;orthogonalLoop=1;jettySize=auto;html=1;exitX=0.5;exitY=1;exitDx=0;exitDy=0;entryX=0.5;entryY=0;entryDx=0;entryDy=0;" parent="8iSQsT3i5JUyxaiXaDEv-1" source="TE1ToNbxEKz8UEBUrwd--4" target="TE1ToNbxEKz8UEBUrwd--11" edge="1">
          <mxGeometry relative="1" as="geometry"/>
        </mxCell>
        <mxCell id="TE1ToNbxEKz8UEBUrwd--4" value="&lt;span style=&quot;font-size: 14px&quot;&gt;渲染添加配置列组件&lt;/span&gt;" style="rounded=1;whiteSpace=wrap;html=1;fillColor=none;" parent="8iSQsT3i5JUyxaiXaDEv-1" vertex="1">
          <mxGeometry x="251" y="579" width="120" height="60" as="geometry"/>
        </mxCell>
        <mxCell id="TE1ToNbxEKz8UEBUrwd--14" style="edgeStyle=orthogonalEdgeStyle;rounded=0;orthogonalLoop=1;jettySize=auto;html=1;exitX=0.5;exitY=1;exitDx=0;exitDy=0;entryX=0.5;entryY=0;entryDx=0;entryDy=0;" parent="8iSQsT3i5JUyxaiXaDEv-1" source="TE1ToNbxEKz8UEBUrwd--11" target="6RNhsYlKehxXHHc33EAZ-27" edge="1">
          <mxGeometry relative="1" as="geometry"/>
        </mxCell>
        <mxCell id="TE1ToNbxEKz8UEBUrwd--11" value="&lt;span style=&quot;font-size: 14px&quot;&gt;渲染对账单列表&lt;/span&gt;" style="rounded=1;whiteSpace=wrap;html=1;fillColor=none;" parent="8iSQsT3i5JUyxaiXaDEv-1" vertex="1">
          <mxGeometry x="251" y="654.5" width="120" height="60" as="geometry"/>
        </mxCell>
      </root>
    </mxGraphModel>
  </diagram>
  <diagram id="K3NPSjwJm8mhcRiSAiqx" name="形式发票列表">
    <mxGraphModel dx="946" dy="591" grid="1" gridSize="10" guides="1" tooltips="1" connect="1" arrows="1" fold="1" page="1" pageScale="1" pageWidth="827" pageHeight="1169" math="0" shadow="0">
      <root>
        <mxCell id="4DBF0N9t6yQPQIzITtP5-0"/>
        <mxCell id="4DBF0N9t6yQPQIzITtP5-1" parent="4DBF0N9t6yQPQIzITtP5-0"/>
        <mxCell id="yAjHc7fsij1nNmhmuTr3-0" style="edgeStyle=orthogonalEdgeStyle;rounded=0;orthogonalLoop=1;jettySize=auto;html=1;exitX=0.5;exitY=1;exitDx=0;exitDy=0;entryX=0.5;entryY=0;entryDx=0;entryDy=0;" parent="4DBF0N9t6yQPQIzITtP5-1" source="yAjHc7fsij1nNmhmuTr3-3" target="yAjHc7fsij1nNmhmuTr3-21" edge="1">
          <mxGeometry relative="1" as="geometry">
            <Array as="points">
              <mxPoint x="251" y="470"/>
              <mxPoint x="169" y="470"/>
            </Array>
          </mxGeometry>
        </mxCell>
        <mxCell id="yAjHc7fsij1nNmhmuTr3-2" style="edgeStyle=orthogonalEdgeStyle;rounded=0;orthogonalLoop=1;jettySize=auto;html=1;exitX=0.5;exitY=1;exitDx=0;exitDy=0;entryX=0.5;entryY=0;entryDx=0;entryDy=0;" parent="4DBF0N9t6yQPQIzITtP5-1" source="yAjHc7fsij1nNmhmuTr3-3" target="yAjHc7fsij1nNmhmuTr3-39" edge="1">
          <mxGeometry relative="1" as="geometry">
            <Array as="points">
              <mxPoint x="251" y="470"/>
              <mxPoint x="341" y="470"/>
            </Array>
            <mxPoint x="341" y="560" as="targetPoint"/>
          </mxGeometry>
        </mxCell>
        <mxCell id="qaxIu9d1_ivNiw48pQWp-7" style="edgeStyle=orthogonalEdgeStyle;rounded=0;orthogonalLoop=1;jettySize=auto;html=1;exitX=1;exitY=0.25;exitDx=0;exitDy=0;entryX=0;entryY=0.5;entryDx=0;entryDy=0;" parent="4DBF0N9t6yQPQIzITtP5-1" source="yAjHc7fsij1nNmhmuTr3-3" target="qaxIu9d1_ivNiw48pQWp-5" edge="1">
          <mxGeometry relative="1" as="geometry">
            <Array as="points">
              <mxPoint x="311" y="435"/>
            </Array>
          </mxGeometry>
        </mxCell>
        <mxCell id="yAjHc7fsij1nNmhmuTr3-3" value="" style="rounded=0;whiteSpace=wrap;html=1;fillColor=#000000;" parent="4DBF0N9t6yQPQIzITtP5-1" vertex="1">
          <mxGeometry x="191" y="430" width="120" height="10" as="geometry"/>
        </mxCell>
        <mxCell id="yAjHc7fsij1nNmhmuTr3-4" style="edgeStyle=orthogonalEdgeStyle;rounded=0;orthogonalLoop=1;jettySize=auto;html=1;exitX=0.5;exitY=1;exitDx=0;exitDy=0;" parent="4DBF0N9t6yQPQIzITtP5-1" source="yAjHc7fsij1nNmhmuTr3-5" target="yAjHc7fsij1nNmhmuTr3-7" edge="1">
          <mxGeometry relative="1" as="geometry"/>
        </mxCell>
        <mxCell id="yAjHc7fsij1nNmhmuTr3-5" value="" style="ellipse;whiteSpace=wrap;html=1;aspect=fixed;fillColor=#000000;" parent="4DBF0N9t6yQPQIzITtP5-1" vertex="1">
          <mxGeometry x="234" y="50" width="30" height="30" as="geometry"/>
        </mxCell>
        <mxCell id="yAjHc7fsij1nNmhmuTr3-6" style="edgeStyle=orthogonalEdgeStyle;rounded=0;orthogonalLoop=1;jettySize=auto;html=1;exitX=0.5;exitY=1;exitDx=0;exitDy=0;" parent="4DBF0N9t6yQPQIzITtP5-1" source="yAjHc7fsij1nNmhmuTr3-7" edge="1">
          <mxGeometry relative="1" as="geometry">
            <mxPoint x="249" y="200" as="targetPoint"/>
          </mxGeometry>
        </mxCell>
        <mxCell id="yAjHc7fsij1nNmhmuTr3-7" value="&lt;font style=&quot;font-size: 14px&quot;&gt;获取页码、查询和筛选等参数&lt;/font&gt;" style="rounded=1;whiteSpace=wrap;html=1;fillColor=none;" parent="4DBF0N9t6yQPQIzITtP5-1" vertex="1">
          <mxGeometry x="189" y="110" width="120" height="60" as="geometry"/>
        </mxCell>
        <mxCell id="yAjHc7fsij1nNmhmuTr3-8" style="edgeStyle=orthogonalEdgeStyle;rounded=0;orthogonalLoop=1;jettySize=auto;html=1;exitX=0.5;exitY=1;exitDx=0;exitDy=0;entryX=0.5;entryY=0;entryDx=0;entryDy=0;" parent="4DBF0N9t6yQPQIzITtP5-1" source="yAjHc7fsij1nNmhmuTr3-9" target="yAjHc7fsij1nNmhmuTr3-12" edge="1">
          <mxGeometry relative="1" as="geometry"/>
        </mxCell>
        <mxCell id="yAjHc7fsij1nNmhmuTr3-9" value="&lt;font style=&quot;font-size: 14px&quot;&gt;加载形式发票列表数据&lt;/font&gt;" style="rounded=1;whiteSpace=wrap;html=1;fillColor=none;" parent="4DBF0N9t6yQPQIzITtP5-1" vertex="1">
          <mxGeometry x="189" y="200" width="120" height="60" as="geometry"/>
        </mxCell>
        <mxCell id="yAjHc7fsij1nNmhmuTr3-11" style="edgeStyle=orthogonalEdgeStyle;rounded=0;orthogonalLoop=1;jettySize=auto;html=1;exitX=0.5;exitY=1;exitDx=0;exitDy=0;entryX=0.5;entryY=0;entryDx=0;entryDy=0;" parent="4DBF0N9t6yQPQIzITtP5-1" source="yAjHc7fsij1nNmhmuTr3-12" target="yAjHc7fsij1nNmhmuTr3-17" edge="1">
          <mxGeometry relative="1" as="geometry">
            <mxPoint x="249" y="360" as="targetPoint"/>
          </mxGeometry>
        </mxCell>
        <mxCell id="yAjHc7fsij1nNmhmuTr3-45" style="edgeStyle=orthogonalEdgeStyle;rounded=0;orthogonalLoop=1;jettySize=auto;html=1;exitX=1;exitY=0.5;exitDx=0;exitDy=0;entryX=0.5;entryY=0;entryDx=0;entryDy=0;" parent="4DBF0N9t6yQPQIzITtP5-1" source="yAjHc7fsij1nNmhmuTr3-12" target="gRMiCxXgtrJNWHWjO490-0" edge="1">
          <mxGeometry relative="1" as="geometry">
            <mxPoint x="390" y="360" as="targetPoint"/>
          </mxGeometry>
        </mxCell>
        <mxCell id="yAjHc7fsij1nNmhmuTr3-12" value="" style="rhombus;whiteSpace=wrap;html=1;fillColor=none;" parent="4DBF0N9t6yQPQIzITtP5-1" vertex="1">
          <mxGeometry x="229" y="277" width="42" height="40" as="geometry"/>
        </mxCell>
        <mxCell id="qaxIu9d1_ivNiw48pQWp-0" style="edgeStyle=orthogonalEdgeStyle;rounded=0;orthogonalLoop=1;jettySize=auto;html=1;exitX=0.5;exitY=1;exitDx=0;exitDy=0;entryX=0.5;entryY=0;entryDx=0;entryDy=0;" parent="4DBF0N9t6yQPQIzITtP5-1" source="yAjHc7fsij1nNmhmuTr3-17" target="yAjHc7fsij1nNmhmuTr3-3" edge="1">
          <mxGeometry relative="1" as="geometry"/>
        </mxCell>
        <mxCell id="yAjHc7fsij1nNmhmuTr3-17" value="&lt;span style=&quot;font-size: 14px&quot;&gt;渲染形式发票列表&lt;/span&gt;" style="rounded=1;whiteSpace=wrap;html=1;fillColor=none;" parent="4DBF0N9t6yQPQIzITtP5-1" vertex="1">
          <mxGeometry x="189" y="340.5" width="122" height="60" as="geometry"/>
        </mxCell>
        <mxCell id="yAjHc7fsij1nNmhmuTr3-18" value="数据不为空" style="text;html=1;" parent="4DBF0N9t6yQPQIzITtP5-1" vertex="1">
          <mxGeometry x="154" y="305" width="70" height="30" as="geometry"/>
        </mxCell>
        <mxCell id="yAjHc7fsij1nNmhmuTr3-19" style="edgeStyle=orthogonalEdgeStyle;rounded=0;orthogonalLoop=1;jettySize=auto;html=1;exitX=0;exitY=0.25;exitDx=0;exitDy=0;entryX=0.077;entryY=0.3;entryDx=0;entryDy=0;entryPerimeter=0;" parent="4DBF0N9t6yQPQIzITtP5-1" source="yAjHc7fsij1nNmhmuTr3-3" target="yAjHc7fsij1nNmhmuTr3-3" edge="1">
          <mxGeometry relative="1" as="geometry"/>
        </mxCell>
        <mxCell id="yAjHc7fsij1nNmhmuTr3-20" style="edgeStyle=orthogonalEdgeStyle;rounded=0;orthogonalLoop=1;jettySize=auto;html=1;exitX=0.5;exitY=1;exitDx=0;exitDy=0;entryX=0.5;entryY=0;entryDx=0;entryDy=0;" parent="4DBF0N9t6yQPQIzITtP5-1" source="yAjHc7fsij1nNmhmuTr3-21" target="yAjHc7fsij1nNmhmuTr3-27" edge="1">
          <mxGeometry relative="1" as="geometry"/>
        </mxCell>
        <mxCell id="yAjHc7fsij1nNmhmuTr3-21" value="&lt;span style=&quot;font-size: 14px&quot;&gt;点击形式发票号&lt;/span&gt;" style="rounded=1;whiteSpace=wrap;html=1;fillColor=none;" parent="4DBF0N9t6yQPQIzITtP5-1" vertex="1">
          <mxGeometry x="109" y="520" width="120" height="60" as="geometry"/>
        </mxCell>
        <mxCell id="ISfg1IjBhsW0JKdiLhzJ-2" style="edgeStyle=orthogonalEdgeStyle;rounded=0;orthogonalLoop=1;jettySize=auto;html=1;exitX=1;exitY=0.5;exitDx=0;exitDy=0;entryX=0;entryY=0.5;entryDx=0;entryDy=0;" parent="4DBF0N9t6yQPQIzITtP5-1" source="yAjHc7fsij1nNmhmuTr3-23" target="yAjHc7fsij1nNmhmuTr3-33" edge="1">
          <mxGeometry relative="1" as="geometry"/>
        </mxCell>
        <mxCell id="yAjHc7fsij1nNmhmuTr3-23" value="&lt;span style=&quot;text-align: left ; white-space: nowrap&quot;&gt;&lt;font style=&quot;font-size: 14px&quot;&gt;更改筛选条件&lt;/font&gt;&lt;/span&gt;" style="rounded=1;whiteSpace=wrap;html=1;fillColor=none;" parent="4DBF0N9t6yQPQIzITtP5-1" vertex="1">
          <mxGeometry x="380" y="488.5" width="120" height="60" as="geometry"/>
        </mxCell>
        <mxCell id="yAjHc7fsij1nNmhmuTr3-24" style="edgeStyle=orthogonalEdgeStyle;rounded=0;orthogonalLoop=1;jettySize=auto;html=1;exitX=0;exitY=0.5;exitDx=0;exitDy=0;entryX=1;entryY=0.5;entryDx=0;entryDy=0;" parent="4DBF0N9t6yQPQIzITtP5-1" source="yAjHc7fsij1nNmhmuTr3-25" target="yAjHc7fsij1nNmhmuTr3-7" edge="1">
          <mxGeometry relative="1" as="geometry"/>
        </mxCell>
        <mxCell id="yAjHc7fsij1nNmhmuTr3-25" value="&lt;span style=&quot;font-size: 14px ; text-align: left ; white-space: nowrap&quot;&gt;渲染对应组件&lt;/span&gt;&lt;br style=&quot;font-size: 14px ; text-align: left ; white-space: nowrap&quot;&gt;&lt;span style=&quot;font-size: 14px ; text-align: left ; white-space: nowrap&quot;&gt;保存更改后参数&lt;/span&gt;" style="rounded=1;whiteSpace=wrap;html=1;fillColor=none;" parent="4DBF0N9t6yQPQIzITtP5-1" vertex="1">
          <mxGeometry x="500" y="110" width="120" height="60" as="geometry"/>
        </mxCell>
        <mxCell id="yAjHc7fsij1nNmhmuTr3-27" value="&lt;span style=&quot;font-size: 14px&quot;&gt;跳转到形式发票文档&lt;/span&gt;" style="rounded=1;whiteSpace=wrap;html=1;fillColor=none;" parent="4DBF0N9t6yQPQIzITtP5-1" vertex="1">
          <mxGeometry x="109" y="636.5" width="120" height="60" as="geometry"/>
        </mxCell>
        <mxCell id="yAjHc7fsij1nNmhmuTr3-28" style="edgeStyle=orthogonalEdgeStyle;rounded=0;orthogonalLoop=1;jettySize=auto;html=1;exitX=0.5;exitY=1;exitDx=0;exitDy=0;entryX=0.5;entryY=0;entryDx=0;entryDy=0;" parent="4DBF0N9t6yQPQIzITtP5-1" source="yAjHc7fsij1nNmhmuTr3-27" target="yAjHc7fsij1nNmhmuTr3-37" edge="1">
          <mxGeometry relative="1" as="geometry">
            <Array as="points">
              <mxPoint x="171" y="697"/>
              <mxPoint x="171" y="740"/>
              <mxPoint x="251" y="740"/>
            </Array>
            <mxPoint x="171" y="723" as="sourcePoint"/>
          </mxGeometry>
        </mxCell>
        <mxCell id="yAjHc7fsij1nNmhmuTr3-30" value="" style="ellipse;html=1;shape=endState;fillColor=#000000;strokeColor=#000000;" parent="4DBF0N9t6yQPQIzITtP5-1" vertex="1">
          <mxGeometry x="236" y="800" width="30" height="30" as="geometry"/>
        </mxCell>
        <mxCell id="gRMiCxXgtrJNWHWjO490-18" style="edgeStyle=orthogonalEdgeStyle;rounded=0;orthogonalLoop=1;jettySize=auto;html=1;exitX=0.5;exitY=1;exitDx=0;exitDy=0;entryX=1;entryY=0.75;entryDx=0;entryDy=0;" parent="4DBF0N9t6yQPQIzITtP5-1" source="yAjHc7fsij1nNmhmuTr3-33" target="yAjHc7fsij1nNmhmuTr3-37" edge="1">
          <mxGeometry relative="1" as="geometry">
            <mxPoint x="601" y="450" as="targetPoint"/>
          </mxGeometry>
        </mxCell>
        <mxCell id="ISfg1IjBhsW0JKdiLhzJ-0" style="edgeStyle=orthogonalEdgeStyle;rounded=0;orthogonalLoop=1;jettySize=auto;html=1;exitX=0.5;exitY=0;exitDx=0;exitDy=0;" parent="4DBF0N9t6yQPQIzITtP5-1" source="yAjHc7fsij1nNmhmuTr3-33" target="yAjHc7fsij1nNmhmuTr3-25" edge="1">
          <mxGeometry relative="1" as="geometry"/>
        </mxCell>
        <mxCell id="yAjHc7fsij1nNmhmuTr3-33" value="" style="rhombus;whiteSpace=wrap;html=1;fillColor=none;" parent="4DBF0N9t6yQPQIzITtP5-1" vertex="1">
          <mxGeometry x="539" y="497.5" width="42" height="42" as="geometry"/>
        </mxCell>
        <mxCell id="yAjHc7fsij1nNmhmuTr3-36" style="edgeStyle=orthogonalEdgeStyle;rounded=0;orthogonalLoop=1;jettySize=auto;html=1;exitX=0.5;exitY=1;exitDx=0;exitDy=0;entryX=0.5;entryY=0;entryDx=0;entryDy=0;" parent="4DBF0N9t6yQPQIzITtP5-1" source="yAjHc7fsij1nNmhmuTr3-37" target="yAjHc7fsij1nNmhmuTr3-30" edge="1">
          <mxGeometry relative="1" as="geometry"/>
        </mxCell>
        <mxCell id="yAjHc7fsij1nNmhmuTr3-37" value="" style="rounded=0;whiteSpace=wrap;html=1;fillColor=#000000;" parent="4DBF0N9t6yQPQIzITtP5-1" vertex="1">
          <mxGeometry x="191" y="765" width="120" height="10" as="geometry"/>
        </mxCell>
        <mxCell id="yAjHc7fsij1nNmhmuTr3-38" style="edgeStyle=orthogonalEdgeStyle;rounded=0;orthogonalLoop=1;jettySize=auto;html=1;exitX=0.5;exitY=1;exitDx=0;exitDy=0;entryX=0.5;entryY=0;entryDx=0;entryDy=0;" parent="4DBF0N9t6yQPQIzITtP5-1" source="yAjHc7fsij1nNmhmuTr3-39" target="yAjHc7fsij1nNmhmuTr3-37" edge="1">
          <mxGeometry relative="1" as="geometry">
            <Array as="points">
              <mxPoint x="341" y="740"/>
              <mxPoint x="251" y="740"/>
            </Array>
          </mxGeometry>
        </mxCell>
        <mxCell id="yAjHc7fsij1nNmhmuTr3-39" value="&lt;span style=&quot;font-size: 14px&quot;&gt;切换到对账单列表模块&lt;/span&gt;" style="rounded=1;whiteSpace=wrap;html=1;fillColor=none;" parent="4DBF0N9t6yQPQIzITtP5-1" vertex="1">
          <mxGeometry x="281" y="576.5" width="120" height="60" as="geometry"/>
        </mxCell>
        <mxCell id="yAjHc7fsij1nNmhmuTr3-46" value="数据为空" style="text;html=1;" parent="4DBF0N9t6yQPQIzITtP5-1" vertex="1">
          <mxGeometry x="320" y="270" width="90" height="30" as="geometry"/>
        </mxCell>
        <mxCell id="qaxIu9d1_ivNiw48pQWp-6" style="edgeStyle=orthogonalEdgeStyle;rounded=0;orthogonalLoop=1;jettySize=auto;html=1;exitX=0.5;exitY=1;exitDx=0;exitDy=0;entryX=0.5;entryY=0;entryDx=0;entryDy=0;" parent="4DBF0N9t6yQPQIzITtP5-1" source="gRMiCxXgtrJNWHWjO490-0" target="qaxIu9d1_ivNiw48pQWp-5" edge="1">
          <mxGeometry relative="1" as="geometry"/>
        </mxCell>
        <mxCell id="gRMiCxXgtrJNWHWjO490-0" value="&lt;span style=&quot;font-size: 14px&quot;&gt;显示背景提示图片&lt;/span&gt;" style="rounded=1;whiteSpace=wrap;html=1;fillColor=none;" parent="4DBF0N9t6yQPQIzITtP5-1" vertex="1">
          <mxGeometry x="380" y="340" width="120" height="60" as="geometry"/>
        </mxCell>
        <mxCell id="gRMiCxXgtrJNWHWjO490-6" value="否" style="text;html=1;resizable=0;points=[];autosize=1;align=left;verticalAlign=top;spacingTop=-4;" parent="4DBF0N9t6yQPQIzITtP5-1" vertex="1">
          <mxGeometry x="571" y="636.5" width="30" height="20" as="geometry"/>
        </mxCell>
        <mxCell id="qaxIu9d1_ivNiw48pQWp-10" style="edgeStyle=orthogonalEdgeStyle;rounded=0;orthogonalLoop=1;jettySize=auto;html=1;exitX=0.5;exitY=1;exitDx=0;exitDy=0;entryX=0.5;entryY=0;entryDx=0;entryDy=0;" parent="4DBF0N9t6yQPQIzITtP5-1" source="qaxIu9d1_ivNiw48pQWp-5" target="yAjHc7fsij1nNmhmuTr3-23" edge="1">
          <mxGeometry relative="1" as="geometry"/>
        </mxCell>
        <mxCell id="qaxIu9d1_ivNiw48pQWp-5" value="" style="rhombus;whiteSpace=wrap;html=1;fillColor=none;" parent="4DBF0N9t6yQPQIzITtP5-1" vertex="1">
          <mxGeometry x="419" y="415" width="42" height="40" as="geometry"/>
        </mxCell>
        <mxCell id="UrCBD5wnrbeIZSQ7mLb2-0" value="是" style="text;html=1;resizable=0;points=[];autosize=1;align=left;verticalAlign=top;spacingTop=-4;" parent="4DBF0N9t6yQPQIzITtP5-1" vertex="1">
          <mxGeometry x="569" y="380" width="30" height="20" as="geometry"/>
        </mxCell>
      </root>
    </mxGraphModel>
  </diagram>
  <diagram id="osHJ2AIatO6RV-2rAdgC" name="形式发票草稿">
    <mxGraphModel dx="946" dy="591" grid="1" gridSize="10" guides="1" tooltips="1" connect="1" arrows="1" fold="1" page="1" pageScale="1" pageWidth="827" pageHeight="1169" math="0" shadow="0">
      <root>
        <mxCell id="q7ne6AP4tz_-ELuacfct-0"/>
        <mxCell id="q7ne6AP4tz_-ELuacfct-1" parent="q7ne6AP4tz_-ELuacfct-0"/>
        <mxCell id="EQkHQ91dP3tdXutp4jcQ-57" style="edgeStyle=orthogonalEdgeStyle;rounded=0;orthogonalLoop=1;jettySize=auto;html=1;exitX=0.5;exitY=1;exitDx=0;exitDy=0;entryX=0.5;entryY=0;entryDx=0;entryDy=0;" parent="q7ne6AP4tz_-ELuacfct-1" source="EQkHQ91dP3tdXutp4jcQ-58" target="EQkHQ91dP3tdXutp4jcQ-60" edge="1">
          <mxGeometry relative="1" as="geometry"/>
        </mxCell>
        <mxCell id="EQkHQ91dP3tdXutp4jcQ-58" value="" style="ellipse;whiteSpace=wrap;html=1;aspect=fixed;fillColor=#000000;" parent="q7ne6AP4tz_-ELuacfct-1" vertex="1">
          <mxGeometry x="435" y="60" width="30" height="30" as="geometry"/>
        </mxCell>
        <mxCell id="EQkHQ91dP3tdXutp4jcQ-59" style="edgeStyle=orthogonalEdgeStyle;rounded=0;orthogonalLoop=1;jettySize=auto;html=1;exitX=0.5;exitY=1;exitDx=0;exitDy=0;entryX=0.5;entryY=0;entryDx=0;entryDy=0;" parent="q7ne6AP4tz_-ELuacfct-1" source="EQkHQ91dP3tdXutp4jcQ-60" edge="1">
          <mxGeometry relative="1" as="geometry">
            <mxPoint x="448" y="190" as="targetPoint"/>
          </mxGeometry>
        </mxCell>
        <mxCell id="EQkHQ91dP3tdXutp4jcQ-60" value="&lt;font style=&quot;font-size: 18px&quot;&gt;根据ID拉取&lt;br&gt;文档及行数据&lt;/font&gt;" style="rounded=1;whiteSpace=wrap;html=1;fillColor=none;" parent="q7ne6AP4tz_-ELuacfct-1" vertex="1">
          <mxGeometry x="390" y="110" width="120" height="60" as="geometry"/>
        </mxCell>
        <mxCell id="EQkHQ91dP3tdXutp4jcQ-61" style="edgeStyle=orthogonalEdgeStyle;rounded=0;orthogonalLoop=1;jettySize=auto;html=1;exitX=0.5;exitY=1;exitDx=0;exitDy=0;entryX=0.25;entryY=0;entryDx=0;entryDy=0;" parent="q7ne6AP4tz_-ELuacfct-1" source="EQkHQ91dP3tdXutp4jcQ-62" target="EQkHQ91dP3tdXutp4jcQ-68" edge="1">
          <mxGeometry relative="1" as="geometry"/>
        </mxCell>
        <mxCell id="EQkHQ91dP3tdXutp4jcQ-62" value="&lt;span style=&quot;font-size: 18px&quot;&gt;渲染文档&lt;br&gt;头信息&lt;/span&gt;" style="rounded=1;whiteSpace=wrap;html=1;fillColor=none;" parent="q7ne6AP4tz_-ELuacfct-1" vertex="1">
          <mxGeometry x="303" y="229" width="120" height="60" as="geometry"/>
        </mxCell>
        <mxCell id="EQkHQ91dP3tdXutp4jcQ-63" style="edgeStyle=orthogonalEdgeStyle;rounded=0;orthogonalLoop=1;jettySize=auto;html=1;exitX=0.5;exitY=1;exitDx=0;exitDy=0;entryX=0.659;entryY=-0.15;entryDx=0;entryDy=0;entryPerimeter=0;" parent="q7ne6AP4tz_-ELuacfct-1" source="EQkHQ91dP3tdXutp4jcQ-65" target="EQkHQ91dP3tdXutp4jcQ-68" edge="1">
          <mxGeometry relative="1" as="geometry"/>
        </mxCell>
        <mxCell id="EQkHQ91dP3tdXutp4jcQ-64" style="edgeStyle=orthogonalEdgeStyle;rounded=0;orthogonalLoop=1;jettySize=auto;html=1;exitX=0.75;exitY=1;exitDx=0;exitDy=0;entryX=0.5;entryY=0;entryDx=0;entryDy=0;" parent="q7ne6AP4tz_-ELuacfct-1" source="EQkHQ91dP3tdXutp4jcQ-112" target="EQkHQ91dP3tdXutp4jcQ-65" edge="1">
          <mxGeometry relative="1" as="geometry"/>
        </mxCell>
        <mxCell id="EQkHQ91dP3tdXutp4jcQ-65" value="&lt;span style=&quot;font-size: 18px&quot;&gt;渲染行数据&lt;/span&gt;" style="rounded=1;whiteSpace=wrap;html=1;fillColor=none;" parent="q7ne6AP4tz_-ELuacfct-1" vertex="1">
          <mxGeometry x="457.5" y="229" width="120" height="60" as="geometry"/>
        </mxCell>
        <mxCell id="EQkHQ91dP3tdXutp4jcQ-66" style="edgeStyle=orthogonalEdgeStyle;rounded=0;orthogonalLoop=1;jettySize=auto;html=1;exitX=1;exitY=0.5;exitDx=0;exitDy=0;entryX=0.5;entryY=0;entryDx=0;entryDy=0;" parent="q7ne6AP4tz_-ELuacfct-1" source="EQkHQ91dP3tdXutp4jcQ-68" target="EQkHQ91dP3tdXutp4jcQ-85" edge="1">
          <mxGeometry relative="1" as="geometry"/>
        </mxCell>
        <mxCell id="EQkHQ91dP3tdXutp4jcQ-67" style="edgeStyle=orthogonalEdgeStyle;rounded=0;orthogonalLoop=1;jettySize=auto;html=1;exitX=0;exitY=0.25;exitDx=0;exitDy=0;" parent="q7ne6AP4tz_-ELuacfct-1" source="EQkHQ91dP3tdXutp4jcQ-68" target="EQkHQ91dP3tdXutp4jcQ-78" edge="1">
          <mxGeometry relative="1" as="geometry"/>
        </mxCell>
        <mxCell id="EQkHQ91dP3tdXutp4jcQ-68" value="" style="rounded=0;whiteSpace=wrap;html=1;fillColor=#000000;" parent="q7ne6AP4tz_-ELuacfct-1" vertex="1">
          <mxGeometry x="298.5" y="317.5" width="330" height="10" as="geometry"/>
        </mxCell>
        <mxCell id="EQkHQ91dP3tdXutp4jcQ-69" style="edgeStyle=orthogonalEdgeStyle;rounded=0;orthogonalLoop=1;jettySize=auto;html=1;exitX=0.5;exitY=1;exitDx=0;exitDy=0;entryX=0.5;entryY=0;entryDx=0;entryDy=0;" parent="q7ne6AP4tz_-ELuacfct-1" source="EQkHQ91dP3tdXutp4jcQ-70" target="EQkHQ91dP3tdXutp4jcQ-72" edge="1">
          <mxGeometry relative="1" as="geometry">
            <mxPoint x="123" y="465" as="targetPoint"/>
          </mxGeometry>
        </mxCell>
        <mxCell id="EQkHQ91dP3tdXutp4jcQ-70" value="&lt;span style=&quot;font-size: 18px&quot;&gt;编辑行数据&lt;/span&gt;" style="rounded=1;whiteSpace=wrap;html=1;fillColor=none;" parent="q7ne6AP4tz_-ELuacfct-1" vertex="1">
          <mxGeometry x="257.5" y="460" width="120" height="60" as="geometry"/>
        </mxCell>
        <mxCell id="EQkHQ91dP3tdXutp4jcQ-71" style="edgeStyle=orthogonalEdgeStyle;rounded=0;orthogonalLoop=1;jettySize=auto;html=1;exitX=0.5;exitY=1;exitDx=0;exitDy=0;entryX=0.5;entryY=0;entryDx=0;entryDy=0;" parent="q7ne6AP4tz_-ELuacfct-1" source="EQkHQ91dP3tdXutp4jcQ-72" target="EQkHQ91dP3tdXutp4jcQ-74" edge="1">
          <mxGeometry relative="1" as="geometry"/>
        </mxCell>
        <mxCell id="EQkHQ91dP3tdXutp4jcQ-72" value="&lt;span style=&quot;font-size: 18px&quot;&gt;保存并渲染被编辑的行&lt;/span&gt;" style="rounded=1;whiteSpace=wrap;html=1;fillColor=none;" parent="q7ne6AP4tz_-ELuacfct-1" vertex="1">
          <mxGeometry x="258" y="545" width="120" height="60" as="geometry"/>
        </mxCell>
        <mxCell id="EQkHQ91dP3tdXutp4jcQ-73" style="edgeStyle=orthogonalEdgeStyle;rounded=0;orthogonalLoop=1;jettySize=auto;html=1;exitX=0.5;exitY=1;exitDx=0;exitDy=0;entryX=0.5;entryY=0;entryDx=0;entryDy=0;" parent="q7ne6AP4tz_-ELuacfct-1" source="EQkHQ91dP3tdXutp4jcQ-74" target="EQkHQ91dP3tdXutp4jcQ-76" edge="1">
          <mxGeometry relative="1" as="geometry"/>
        </mxCell>
        <mxCell id="EQkHQ91dP3tdXutp4jcQ-74" value="" style="rhombus;whiteSpace=wrap;html=1;fillColor=none;" parent="q7ne6AP4tz_-ELuacfct-1" vertex="1">
          <mxGeometry x="303" y="627.5" width="30" height="30" as="geometry"/>
        </mxCell>
        <mxCell id="ahY5pQGCctQWmhH9sSRu-4" style="edgeStyle=orthogonalEdgeStyle;rounded=0;orthogonalLoop=1;jettySize=auto;html=1;exitX=0.5;exitY=1;exitDx=0;exitDy=0;entryX=0;entryY=0.5;entryDx=0;entryDy=0;" parent="q7ne6AP4tz_-ELuacfct-1" source="EQkHQ91dP3tdXutp4jcQ-76" target="EQkHQ91dP3tdXutp4jcQ-106" edge="1">
          <mxGeometry relative="1" as="geometry"/>
        </mxCell>
        <mxCell id="EQkHQ91dP3tdXutp4jcQ-76" value="&lt;span style=&quot;font-size: 18px&quot;&gt;重新渲染总金额&lt;/span&gt;" style="rounded=1;whiteSpace=wrap;html=1;fillColor=none;" parent="q7ne6AP4tz_-ELuacfct-1" vertex="1">
          <mxGeometry x="257.5" y="680" width="120" height="60" as="geometry"/>
        </mxCell>
        <mxCell id="EQkHQ91dP3tdXutp4jcQ-77" style="edgeStyle=orthogonalEdgeStyle;rounded=0;orthogonalLoop=1;jettySize=auto;html=1;exitX=0.5;exitY=1;exitDx=0;exitDy=0;entryX=0.5;entryY=0;entryDx=0;entryDy=0;" parent="q7ne6AP4tz_-ELuacfct-1" source="EQkHQ91dP3tdXutp4jcQ-78" edge="1">
          <mxGeometry relative="1" as="geometry">
            <mxPoint x="182" y="460" as="targetPoint"/>
          </mxGeometry>
        </mxCell>
        <mxCell id="EQkHQ91dP3tdXutp4jcQ-78" value="&lt;span style=&quot;font-size: 18px&quot;&gt;删除行条目&lt;/span&gt;" style="rounded=1;whiteSpace=wrap;html=1;fillColor=none;" parent="q7ne6AP4tz_-ELuacfct-1" vertex="1">
          <mxGeometry x="121.5" y="350" width="120" height="60" as="geometry"/>
        </mxCell>
        <mxCell id="EQkHQ91dP3tdXutp4jcQ-81" style="edgeStyle=orthogonalEdgeStyle;rounded=0;orthogonalLoop=1;jettySize=auto;html=1;exitX=0.5;exitY=1;exitDx=0;exitDy=0;entryX=0.5;entryY=0;entryDx=0;entryDy=0;" parent="q7ne6AP4tz_-ELuacfct-1" source="EQkHQ91dP3tdXutp4jcQ-83" target="ahY5pQGCctQWmhH9sSRu-5" edge="1">
          <mxGeometry relative="1" as="geometry">
            <mxPoint x="182" y="530" as="targetPoint"/>
          </mxGeometry>
        </mxCell>
        <mxCell id="EQkHQ91dP3tdXutp4jcQ-82" style="edgeStyle=orthogonalEdgeStyle;rounded=0;orthogonalLoop=1;jettySize=auto;html=1;exitX=0;exitY=0.5;exitDx=0;exitDy=0;entryX=0.5;entryY=0;entryDx=0;entryDy=0;" parent="q7ne6AP4tz_-ELuacfct-1" source="EQkHQ91dP3tdXutp4jcQ-83" target="EQkHQ91dP3tdXutp4jcQ-90" edge="1">
          <mxGeometry relative="1" as="geometry">
            <Array as="points">
              <mxPoint x="110" y="475"/>
            </Array>
          </mxGeometry>
        </mxCell>
        <mxCell id="EQkHQ91dP3tdXutp4jcQ-83" value="" style="rhombus;whiteSpace=wrap;html=1;fillColor=none;" parent="q7ne6AP4tz_-ELuacfct-1" vertex="1">
          <mxGeometry x="164" y="460" width="35" height="30" as="geometry"/>
        </mxCell>
        <mxCell id="EQkHQ91dP3tdXutp4jcQ-84" style="edgeStyle=orthogonalEdgeStyle;rounded=0;orthogonalLoop=1;jettySize=auto;html=1;exitX=0.5;exitY=1;exitDx=0;exitDy=0;entryX=0.891;entryY=0;entryDx=0;entryDy=0;entryPerimeter=0;" parent="q7ne6AP4tz_-ELuacfct-1" source="EQkHQ91dP3tdXutp4jcQ-85" target="EQkHQ91dP3tdXutp4jcQ-88" edge="1">
          <mxGeometry relative="1" as="geometry">
            <Array as="points">
              <mxPoint x="719" y="800"/>
              <mxPoint x="540" y="800"/>
            </Array>
          </mxGeometry>
        </mxCell>
        <mxCell id="EQkHQ91dP3tdXutp4jcQ-85" value="&lt;span style=&quot;font-size: 18px&quot;&gt;丢弃整个文档&lt;/span&gt;" style="rounded=1;whiteSpace=wrap;html=1;fillColor=none;" parent="q7ne6AP4tz_-ELuacfct-1" vertex="1">
          <mxGeometry x="658.5" y="349" width="120" height="60" as="geometry"/>
        </mxCell>
        <mxCell id="EQkHQ91dP3tdXutp4jcQ-86" style="edgeStyle=orthogonalEdgeStyle;rounded=0;orthogonalLoop=1;jettySize=auto;html=1;exitX=0.5;exitY=1;exitDx=0;exitDy=0;" parent="q7ne6AP4tz_-ELuacfct-1" source="EQkHQ91dP3tdXutp4jcQ-88" edge="1">
          <mxGeometry relative="1" as="geometry">
            <mxPoint x="450" y="900" as="targetPoint"/>
          </mxGeometry>
        </mxCell>
        <mxCell id="EQkHQ91dP3tdXutp4jcQ-87" style="edgeStyle=orthogonalEdgeStyle;rounded=0;orthogonalLoop=1;jettySize=auto;html=1;exitX=0.5;exitY=1;exitDx=0;exitDy=0;" parent="q7ne6AP4tz_-ELuacfct-1" source="EQkHQ91dP3tdXutp4jcQ-88" edge="1">
          <mxGeometry relative="1" as="geometry">
            <mxPoint x="450" y="940" as="targetPoint"/>
          </mxGeometry>
        </mxCell>
        <mxCell id="EQkHQ91dP3tdXutp4jcQ-88" value="" style="rounded=0;whiteSpace=wrap;html=1;fillColor=#000000;" parent="q7ne6AP4tz_-ELuacfct-1" vertex="1">
          <mxGeometry x="335" y="890" width="230" height="10" as="geometry"/>
        </mxCell>
        <mxCell id="EQkHQ91dP3tdXutp4jcQ-89" style="edgeStyle=orthogonalEdgeStyle;rounded=0;orthogonalLoop=1;jettySize=auto;html=1;exitX=0.5;exitY=1;exitDx=0;exitDy=0;entryX=0.104;entryY=-0.3;entryDx=0;entryDy=0;entryPerimeter=0;" parent="q7ne6AP4tz_-ELuacfct-1" source="EQkHQ91dP3tdXutp4jcQ-90" target="EQkHQ91dP3tdXutp4jcQ-88" edge="1">
          <mxGeometry relative="1" as="geometry">
            <mxPoint x="280" y="840" as="targetPoint"/>
            <Array as="points">
              <mxPoint x="110" y="800"/>
              <mxPoint x="359" y="800"/>
            </Array>
          </mxGeometry>
        </mxCell>
        <mxCell id="EQkHQ91dP3tdXutp4jcQ-90" value="&lt;span style=&quot;font-size: 18px&quot;&gt;丢弃整个文档&lt;/span&gt;" style="rounded=1;whiteSpace=wrap;html=1;fillColor=none;" parent="q7ne6AP4tz_-ELuacfct-1" vertex="1">
          <mxGeometry x="50" y="680" width="120" height="60" as="geometry"/>
        </mxCell>
        <mxCell id="EQkHQ91dP3tdXutp4jcQ-91" style="edgeStyle=orthogonalEdgeStyle;rounded=0;orthogonalLoop=1;jettySize=auto;html=1;exitX=0.5;exitY=1;exitDx=0;exitDy=0;entryX=0.5;entryY=0;entryDx=0;entryDy=0;" parent="q7ne6AP4tz_-ELuacfct-1" source="EQkHQ91dP3tdXutp4jcQ-92" target="EQkHQ91dP3tdXutp4jcQ-98" edge="1">
          <mxGeometry relative="1" as="geometry"/>
        </mxCell>
        <mxCell id="EQkHQ91dP3tdXutp4jcQ-92" value="&lt;span style=&quot;font-size: 18px&quot;&gt;上传附件&lt;/span&gt;" style="rounded=1;whiteSpace=wrap;html=1;fillColor=none;" parent="q7ne6AP4tz_-ELuacfct-1" vertex="1">
          <mxGeometry x="387.5" y="460" width="120" height="60" as="geometry"/>
        </mxCell>
        <mxCell id="EQkHQ91dP3tdXutp4jcQ-93" style="edgeStyle=orthogonalEdgeStyle;rounded=0;orthogonalLoop=1;jettySize=auto;html=1;exitX=0.5;exitY=1;exitDx=0;exitDy=0;entryX=0.5;entryY=0;entryDx=0;entryDy=0;" parent="q7ne6AP4tz_-ELuacfct-1" source="EQkHQ91dP3tdXutp4jcQ-94" target="EQkHQ91dP3tdXutp4jcQ-108" edge="1">
          <mxGeometry relative="1" as="geometry"/>
        </mxCell>
        <mxCell id="EQkHQ91dP3tdXutp4jcQ-94" value="&lt;span style=&quot;font-size: 18px&quot;&gt;留言给买家&lt;/span&gt;" style="rounded=1;whiteSpace=wrap;html=1;fillColor=none;" parent="q7ne6AP4tz_-ELuacfct-1" vertex="1">
          <mxGeometry x="528.5" y="460" width="120" height="60" as="geometry"/>
        </mxCell>
        <mxCell id="EQkHQ91dP3tdXutp4jcQ-95" style="edgeStyle=orthogonalEdgeStyle;rounded=0;orthogonalLoop=1;jettySize=auto;html=1;exitX=0.5;exitY=1;exitDx=0;exitDy=0;entryX=0.5;entryY=0;entryDx=0;entryDy=0;" parent="q7ne6AP4tz_-ELuacfct-1" source="EQkHQ91dP3tdXutp4jcQ-96" target="EQkHQ91dP3tdXutp4jcQ-88" edge="1">
          <mxGeometry relative="1" as="geometry"/>
        </mxCell>
        <mxCell id="EQkHQ91dP3tdXutp4jcQ-96" value="&lt;span style=&quot;font-size: 18px&quot;&gt;发送草稿文档&lt;/span&gt;" style="rounded=1;whiteSpace=wrap;html=1;fillColor=none;" parent="q7ne6AP4tz_-ELuacfct-1" vertex="1">
          <mxGeometry x="387.5" y="800" width="120" height="60" as="geometry"/>
        </mxCell>
        <mxCell id="EQkHQ91dP3tdXutp4jcQ-97" style="edgeStyle=orthogonalEdgeStyle;rounded=0;orthogonalLoop=1;jettySize=auto;html=1;exitX=0.5;exitY=1;exitDx=0;exitDy=0;entryX=0.5;entryY=0;entryDx=0;entryDy=0;" parent="q7ne6AP4tz_-ELuacfct-1" source="EQkHQ91dP3tdXutp4jcQ-98" target="EQkHQ91dP3tdXutp4jcQ-106" edge="1">
          <mxGeometry relative="1" as="geometry"/>
        </mxCell>
        <mxCell id="EQkHQ91dP3tdXutp4jcQ-98" value="&lt;span style=&quot;font-size: 18px&quot;&gt;浏览器缓存&lt;br&gt;附件&lt;/span&gt;" style="rounded=1;whiteSpace=wrap;html=1;fillColor=none;" parent="q7ne6AP4tz_-ELuacfct-1" vertex="1">
          <mxGeometry x="390" y="545" width="120" height="60" as="geometry"/>
        </mxCell>
        <mxCell id="EQkHQ91dP3tdXutp4jcQ-99" style="edgeStyle=orthogonalEdgeStyle;rounded=0;orthogonalLoop=1;jettySize=auto;html=1;exitX=0;exitY=0.5;exitDx=0;exitDy=0;entryX=0.5;entryY=0;entryDx=0;entryDy=0;" parent="q7ne6AP4tz_-ELuacfct-1" source="EQkHQ91dP3tdXutp4jcQ-102" target="EQkHQ91dP3tdXutp4jcQ-70" edge="1">
          <mxGeometry relative="1" as="geometry"/>
        </mxCell>
        <mxCell id="EQkHQ91dP3tdXutp4jcQ-100" style="edgeStyle=orthogonalEdgeStyle;rounded=0;orthogonalLoop=1;jettySize=auto;html=1;exitX=0.5;exitY=1;exitDx=0;exitDy=0;entryX=0.5;entryY=0;entryDx=0;entryDy=0;" parent="q7ne6AP4tz_-ELuacfct-1" source="EQkHQ91dP3tdXutp4jcQ-102" target="EQkHQ91dP3tdXutp4jcQ-92" edge="1">
          <mxGeometry relative="1" as="geometry"/>
        </mxCell>
        <mxCell id="EQkHQ91dP3tdXutp4jcQ-101" style="edgeStyle=orthogonalEdgeStyle;rounded=0;orthogonalLoop=1;jettySize=auto;html=1;exitX=1;exitY=0.5;exitDx=0;exitDy=0;" parent="q7ne6AP4tz_-ELuacfct-1" source="EQkHQ91dP3tdXutp4jcQ-102" target="EQkHQ91dP3tdXutp4jcQ-94" edge="1">
          <mxGeometry relative="1" as="geometry"/>
        </mxCell>
        <mxCell id="EQkHQ91dP3tdXutp4jcQ-102" value="" style="rounded=0;whiteSpace=wrap;html=1;fillColor=#000000;" parent="q7ne6AP4tz_-ELuacfct-1" vertex="1">
          <mxGeometry x="382.5" y="430" width="130" height="10" as="geometry"/>
        </mxCell>
        <mxCell id="EQkHQ91dP3tdXutp4jcQ-103" style="edgeStyle=orthogonalEdgeStyle;rounded=0;orthogonalLoop=1;jettySize=auto;html=1;exitX=0.5;exitY=1;exitDx=0;exitDy=0;entryX=0.5;entryY=1;entryDx=0;entryDy=0;" parent="q7ne6AP4tz_-ELuacfct-1" source="EQkHQ91dP3tdXutp4jcQ-104" target="EQkHQ91dP3tdXutp4jcQ-102" edge="1">
          <mxGeometry relative="1" as="geometry"/>
        </mxCell>
        <mxCell id="ahY5pQGCctQWmhH9sSRu-1" style="edgeStyle=orthogonalEdgeStyle;rounded=0;orthogonalLoop=1;jettySize=auto;html=1;entryX=0.5;entryY=0;entryDx=0;entryDy=0;" parent="q7ne6AP4tz_-ELuacfct-1" target="EQkHQ91dP3tdXutp4jcQ-104" edge="1">
          <mxGeometry relative="1" as="geometry">
            <mxPoint x="450" y="323" as="sourcePoint"/>
          </mxGeometry>
        </mxCell>
        <mxCell id="EQkHQ91dP3tdXutp4jcQ-104" value="&lt;span style=&quot;font-size: 18px&quot;&gt;文档数据准备&lt;/span&gt;" style="rounded=1;whiteSpace=wrap;html=1;fillColor=none;" parent="q7ne6AP4tz_-ELuacfct-1" vertex="1">
          <mxGeometry x="390" y="349" width="120" height="60" as="geometry"/>
        </mxCell>
        <mxCell id="EQkHQ91dP3tdXutp4jcQ-105" style="edgeStyle=orthogonalEdgeStyle;rounded=0;orthogonalLoop=1;jettySize=auto;html=1;exitX=0.5;exitY=1;exitDx=0;exitDy=0;entryX=0.5;entryY=0;entryDx=0;entryDy=0;" parent="q7ne6AP4tz_-ELuacfct-1" source="EQkHQ91dP3tdXutp4jcQ-106" target="EQkHQ91dP3tdXutp4jcQ-96" edge="1">
          <mxGeometry relative="1" as="geometry"/>
        </mxCell>
        <mxCell id="EQkHQ91dP3tdXutp4jcQ-106" value="" style="rounded=0;whiteSpace=wrap;html=1;fillColor=#000000;" parent="q7ne6AP4tz_-ELuacfct-1" vertex="1">
          <mxGeometry x="381" y="760" width="138" height="10" as="geometry"/>
        </mxCell>
        <mxCell id="EQkHQ91dP3tdXutp4jcQ-107" style="edgeStyle=orthogonalEdgeStyle;rounded=0;orthogonalLoop=1;jettySize=auto;html=1;exitX=0.5;exitY=1;exitDx=0;exitDy=0;entryX=1;entryY=0.5;entryDx=0;entryDy=0;" parent="q7ne6AP4tz_-ELuacfct-1" source="EQkHQ91dP3tdXutp4jcQ-108" target="EQkHQ91dP3tdXutp4jcQ-106" edge="1">
          <mxGeometry relative="1" as="geometry"/>
        </mxCell>
        <mxCell id="EQkHQ91dP3tdXutp4jcQ-108" value="&lt;span style=&quot;font-size: 18px&quot;&gt;渲染留言组件&lt;/span&gt;" style="rounded=1;whiteSpace=wrap;html=1;fillColor=none;" parent="q7ne6AP4tz_-ELuacfct-1" vertex="1">
          <mxGeometry x="528.5" y="545" width="120" height="60" as="geometry"/>
        </mxCell>
        <mxCell id="EQkHQ91dP3tdXutp4jcQ-109" value="&lt;font style=&quot;font-size: 14px&quot;&gt;行数为空&lt;/font&gt;" style="text;html=1;strokeColor=none;fillColor=none;align=center;verticalAlign=middle;whiteSpace=wrap;rounded=0;" parent="q7ne6AP4tz_-ELuacfct-1" vertex="1">
          <mxGeometry x="60" y="525" width="20" height="20" as="geometry"/>
        </mxCell>
        <mxCell id="EQkHQ91dP3tdXutp4jcQ-110" value="&lt;font style=&quot;font-size: 14px&quot;&gt;行数非空&lt;/font&gt;" style="text;html=1;" parent="q7ne6AP4tz_-ELuacfct-1" vertex="1">
          <mxGeometry x="188" y="505" width="70" height="30" as="geometry"/>
        </mxCell>
        <mxCell id="EQkHQ91dP3tdXutp4jcQ-111" style="edgeStyle=orthogonalEdgeStyle;rounded=0;orthogonalLoop=1;jettySize=auto;html=1;exitX=0.25;exitY=1;exitDx=0;exitDy=0;entryX=0.683;entryY=0;entryDx=0;entryDy=0;entryPerimeter=0;" parent="q7ne6AP4tz_-ELuacfct-1" source="EQkHQ91dP3tdXutp4jcQ-112" target="EQkHQ91dP3tdXutp4jcQ-62" edge="1">
          <mxGeometry relative="1" as="geometry"/>
        </mxCell>
        <mxCell id="EQkHQ91dP3tdXutp4jcQ-112" value="" style="rounded=0;whiteSpace=wrap;html=1;fillColor=#000000;" parent="q7ne6AP4tz_-ELuacfct-1" vertex="1">
          <mxGeometry x="387.5" y="190" width="130" height="10" as="geometry"/>
        </mxCell>
        <mxCell id="EQkHQ91dP3tdXutp4jcQ-113" value="" style="ellipse;html=1;shape=endState;fillColor=#000000;strokeColor=#000000;" parent="q7ne6AP4tz_-ELuacfct-1" vertex="1">
          <mxGeometry x="433.5" y="940" width="30" height="30" as="geometry"/>
        </mxCell>
        <mxCell id="ahY5pQGCctQWmhH9sSRu-7" style="edgeStyle=orthogonalEdgeStyle;rounded=0;orthogonalLoop=1;jettySize=auto;html=1;exitX=0.5;exitY=1;exitDx=0;exitDy=0;entryX=0;entryY=0.5;entryDx=0;entryDy=0;" parent="q7ne6AP4tz_-ELuacfct-1" source="ahY5pQGCctQWmhH9sSRu-5" target="EQkHQ91dP3tdXutp4jcQ-74" edge="1">
          <mxGeometry relative="1" as="geometry"/>
        </mxCell>
        <mxCell id="ahY5pQGCctQWmhH9sSRu-5" value="&lt;span style=&quot;font-size: 18px&quot;&gt;重新拉取并渲染行数据&lt;/span&gt;" style="rounded=1;whiteSpace=wrap;html=1;fillColor=none;" parent="q7ne6AP4tz_-ELuacfct-1" vertex="1">
          <mxGeometry x="121.5" y="545" width="120" height="60" as="geometry"/>
        </mxCell>
      </root>
    </mxGraphModel>
  </diagram>
  <diagram id="7NyBAbIa3HqfMHfVb0Xq" name="形式发票预览">
    <mxGraphModel dx="946" dy="591" grid="1" gridSize="10" guides="1" tooltips="1" connect="1" arrows="1" fold="1" page="1" pageScale="1" pageWidth="827" pageHeight="1169" math="0" shadow="0">
      <root>
        <mxCell id="6ck5ZuqBizO2XTnhr9Wt-0"/>
        <mxCell id="6ck5ZuqBizO2XTnhr9Wt-1" parent="6ck5ZuqBizO2XTnhr9Wt-0"/>
        <mxCell id="_xq3LGGYECxJm8sj0OJ2-0" style="edgeStyle=orthogonalEdgeStyle;rounded=0;orthogonalLoop=1;jettySize=auto;html=1;exitX=0.5;exitY=1;exitDx=0;exitDy=0;entryX=0.5;entryY=0;entryDx=0;entryDy=0;" parent="6ck5ZuqBizO2XTnhr9Wt-1" source="_xq3LGGYECxJm8sj0OJ2-1" target="_xq3LGGYECxJm8sj0OJ2-2" edge="1">
          <mxGeometry relative="1" as="geometry"/>
        </mxCell>
        <mxCell id="_xq3LGGYECxJm8sj0OJ2-1" value="" style="ellipse;whiteSpace=wrap;html=1;aspect=fixed;fillColor=#000000;" parent="6ck5ZuqBizO2XTnhr9Wt-1" vertex="1">
          <mxGeometry x="398" y="60" width="30" height="30" as="geometry"/>
        </mxCell>
        <mxCell id="_xq3LGGYECxJm8sj0OJ2-3" style="edgeStyle=orthogonalEdgeStyle;rounded=0;orthogonalLoop=1;jettySize=auto;html=1;exitX=0.5;exitY=1;exitDx=0;exitDy=0;" parent="6ck5ZuqBizO2XTnhr9Wt-1" source="_xq3LGGYECxJm8sj0OJ2-2" edge="1">
          <mxGeometry relative="1" as="geometry">
            <mxPoint x="413" y="200" as="targetPoint"/>
          </mxGeometry>
        </mxCell>
        <mxCell id="_xq3LGGYECxJm8sj0OJ2-2" value="&lt;span style=&quot;font-size: 18px&quot;&gt;拉取文档信息及行信息&lt;/span&gt;" style="rounded=1;whiteSpace=wrap;html=1;fillColor=none;" parent="6ck5ZuqBizO2XTnhr9Wt-1" vertex="1">
          <mxGeometry x="353" y="110" width="120" height="60" as="geometry"/>
        </mxCell>
        <mxCell id="_xq3LGGYECxJm8sj0OJ2-7" style="edgeStyle=orthogonalEdgeStyle;rounded=0;orthogonalLoop=1;jettySize=auto;html=1;exitX=0;exitY=0.5;exitDx=0;exitDy=0;entryX=0.5;entryY=0;entryDx=0;entryDy=0;" parent="6ck5ZuqBizO2XTnhr9Wt-1" source="_xq3LGGYECxJm8sj0OJ2-4" target="_xq3LGGYECxJm8sj0OJ2-8" edge="1">
          <mxGeometry relative="1" as="geometry">
            <mxPoint x="230" y="310" as="targetPoint"/>
          </mxGeometry>
        </mxCell>
        <mxCell id="_xq3LGGYECxJm8sj0OJ2-16" style="edgeStyle=orthogonalEdgeStyle;rounded=0;orthogonalLoop=1;jettySize=auto;html=1;exitX=0.5;exitY=1;exitDx=0;exitDy=0;entryX=0.5;entryY=0;entryDx=0;entryDy=0;" parent="6ck5ZuqBizO2XTnhr9Wt-1" source="_xq3LGGYECxJm8sj0OJ2-4" target="_xq3LGGYECxJm8sj0OJ2-13" edge="1">
          <mxGeometry relative="1" as="geometry"/>
        </mxCell>
        <mxCell id="M0ijtTFeE1uEV9YMx1Uk-17" style="edgeStyle=orthogonalEdgeStyle;rounded=0;orthogonalLoop=1;jettySize=auto;html=1;exitX=1;exitY=0.5;exitDx=0;exitDy=0;entryX=0.5;entryY=0;entryDx=0;entryDy=0;" parent="6ck5ZuqBizO2XTnhr9Wt-1" source="_xq3LGGYECxJm8sj0OJ2-4" target="M0ijtTFeE1uEV9YMx1Uk-20" edge="1">
          <mxGeometry relative="1" as="geometry">
            <mxPoint x="620" y="310" as="targetPoint"/>
          </mxGeometry>
        </mxCell>
        <mxCell id="_xq3LGGYECxJm8sj0OJ2-4" value="" style="rhombus;whiteSpace=wrap;html=1;fillColor=none;" parent="6ck5ZuqBizO2XTnhr9Wt-1" vertex="1">
          <mxGeometry x="393" y="290" width="40" height="40" as="geometry"/>
        </mxCell>
        <mxCell id="_xq3LGGYECxJm8sj0OJ2-6" style="edgeStyle=orthogonalEdgeStyle;rounded=0;orthogonalLoop=1;jettySize=auto;html=1;exitX=0.5;exitY=1;exitDx=0;exitDy=0;entryX=0.5;entryY=0;entryDx=0;entryDy=0;" parent="6ck5ZuqBizO2XTnhr9Wt-1" source="_xq3LGGYECxJm8sj0OJ2-5" target="_xq3LGGYECxJm8sj0OJ2-4" edge="1">
          <mxGeometry relative="1" as="geometry"/>
        </mxCell>
        <mxCell id="_xq3LGGYECxJm8sj0OJ2-5" value="&lt;font style=&quot;font-size: 18px&quot;&gt;从状态树上获取文档状态&lt;/font&gt;" style="rounded=1;whiteSpace=wrap;html=1;fillColor=none;" parent="6ck5ZuqBizO2XTnhr9Wt-1" vertex="1">
          <mxGeometry x="353" y="200" width="120" height="60" as="geometry"/>
        </mxCell>
        <mxCell id="_xq3LGGYECxJm8sj0OJ2-18" style="edgeStyle=orthogonalEdgeStyle;rounded=0;orthogonalLoop=1;jettySize=auto;html=1;exitX=0.5;exitY=1;exitDx=0;exitDy=0;entryX=0.5;entryY=0;entryDx=0;entryDy=0;" parent="6ck5ZuqBizO2XTnhr9Wt-1" source="_xq3LGGYECxJm8sj0OJ2-8" target="_xq3LGGYECxJm8sj0OJ2-11" edge="1">
          <mxGeometry relative="1" as="geometry"/>
        </mxCell>
        <mxCell id="_xq3LGGYECxJm8sj0OJ2-8" value="&lt;font style=&quot;font-size: 18px&quot;&gt;渲染文档&lt;br&gt;已作废组件&lt;/font&gt;" style="rounded=1;whiteSpace=wrap;html=1;fillColor=none;" parent="6ck5ZuqBizO2XTnhr9Wt-1" vertex="1">
          <mxGeometry x="130" y="360" width="120" height="60" as="geometry"/>
        </mxCell>
        <mxCell id="_xq3LGGYECxJm8sj0OJ2-9" value="&lt;font style=&quot;font-size: 14px&quot;&gt;已作废&lt;/font&gt;" style="text;html=1;strokeColor=none;fillColor=none;align=center;verticalAlign=middle;whiteSpace=wrap;rounded=0;" parent="6ck5ZuqBizO2XTnhr9Wt-1" vertex="1">
          <mxGeometry x="260" y="290" width="50" height="20" as="geometry"/>
        </mxCell>
        <mxCell id="_j-JpeazoExV5bAJimLr-4" style="edgeStyle=orthogonalEdgeStyle;rounded=0;orthogonalLoop=1;jettySize=auto;html=1;exitX=0.5;exitY=1;exitDx=0;exitDy=0;entryX=0;entryY=0.5;entryDx=0;entryDy=0;" parent="6ck5ZuqBizO2XTnhr9Wt-1" source="_xq3LGGYECxJm8sj0OJ2-11" target="_j-JpeazoExV5bAJimLr-0" edge="1">
          <mxGeometry relative="1" as="geometry"/>
        </mxCell>
        <mxCell id="_xq3LGGYECxJm8sj0OJ2-11" value="&lt;span style=&quot;font-size: 18px&quot;&gt;渲染所有行不可操作&lt;/span&gt;" style="rounded=1;whiteSpace=wrap;html=1;fillColor=none;" parent="6ck5ZuqBizO2XTnhr9Wt-1" vertex="1">
          <mxGeometry x="130" y="487" width="120" height="60" as="geometry"/>
        </mxCell>
        <mxCell id="_xq3LGGYECxJm8sj0OJ2-19" style="edgeStyle=orthogonalEdgeStyle;rounded=0;orthogonalLoop=1;jettySize=auto;html=1;exitX=0.5;exitY=1;exitDx=0;exitDy=0;entryX=0.5;entryY=0;entryDx=0;entryDy=0;" parent="6ck5ZuqBizO2XTnhr9Wt-1" source="_xq3LGGYECxJm8sj0OJ2-13" edge="1">
          <mxGeometry relative="1" as="geometry">
            <mxPoint x="413" y="450" as="targetPoint"/>
          </mxGeometry>
        </mxCell>
        <mxCell id="_xq3LGGYECxJm8sj0OJ2-13" value="&lt;font style=&quot;font-size: 18px&quot;&gt;渲染文档&lt;br&gt;已拒绝组件&lt;/font&gt;" style="rounded=1;whiteSpace=wrap;html=1;fillColor=none;" parent="6ck5ZuqBizO2XTnhr9Wt-1" vertex="1">
          <mxGeometry x="353" y="360" width="120" height="60" as="geometry"/>
        </mxCell>
        <mxCell id="_xq3LGGYECxJm8sj0OJ2-20" value="&lt;span style=&quot;font-size: 18px&quot;&gt;查看拒绝原因&lt;/span&gt;" style="rounded=1;whiteSpace=wrap;html=1;fillColor=none;" parent="6ck5ZuqBizO2XTnhr9Wt-1" vertex="1">
          <mxGeometry x="278" y="490" width="120" height="60" as="geometry"/>
        </mxCell>
        <mxCell id="M0ijtTFeE1uEV9YMx1Uk-1" style="edgeStyle=orthogonalEdgeStyle;rounded=0;orthogonalLoop=1;jettySize=auto;html=1;exitX=0.25;exitY=1;exitDx=0;exitDy=0;entryX=0.5;entryY=0;entryDx=0;entryDy=0;" parent="6ck5ZuqBizO2XTnhr9Wt-1" source="M0ijtTFeE1uEV9YMx1Uk-0" target="_xq3LGGYECxJm8sj0OJ2-20" edge="1">
          <mxGeometry relative="1" as="geometry"/>
        </mxCell>
        <mxCell id="M0ijtTFeE1uEV9YMx1Uk-0" value="" style="rounded=0;whiteSpace=wrap;html=1;fillColor=#000000;" parent="6ck5ZuqBizO2XTnhr9Wt-1" vertex="1">
          <mxGeometry x="348" y="445" width="130" height="10" as="geometry"/>
        </mxCell>
        <mxCell id="M0ijtTFeE1uEV9YMx1Uk-4" style="edgeStyle=orthogonalEdgeStyle;rounded=0;orthogonalLoop=1;jettySize=auto;html=1;exitX=0.5;exitY=1;exitDx=0;exitDy=0;entryX=0.5;entryY=0;entryDx=0;entryDy=0;" parent="6ck5ZuqBizO2XTnhr9Wt-1" source="_xq3LGGYECxJm8sj0OJ2-20" target="M0ijtTFeE1uEV9YMx1Uk-2" edge="1">
          <mxGeometry relative="1" as="geometry"/>
        </mxCell>
        <mxCell id="M0ijtTFeE1uEV9YMx1Uk-12" style="edgeStyle=orthogonalEdgeStyle;rounded=0;orthogonalLoop=1;jettySize=auto;html=1;exitX=0.5;exitY=1;exitDx=0;exitDy=0;entryX=0.25;entryY=0;entryDx=0;entryDy=0;" parent="6ck5ZuqBizO2XTnhr9Wt-1" source="M0ijtTFeE1uEV9YMx1Uk-2" target="M0ijtTFeE1uEV9YMx1Uk-9" edge="1">
          <mxGeometry relative="1" as="geometry"/>
        </mxCell>
        <mxCell id="M0ijtTFeE1uEV9YMx1Uk-2" value="&lt;span style=&quot;font-size: 18px&quot;&gt;渲染留言组件&lt;/span&gt;" style="rounded=1;whiteSpace=wrap;html=1;fillColor=none;" parent="6ck5ZuqBizO2XTnhr9Wt-1" vertex="1">
          <mxGeometry x="278" y="570" width="120" height="60" as="geometry"/>
        </mxCell>
        <mxCell id="M0ijtTFeE1uEV9YMx1Uk-7" style="edgeStyle=orthogonalEdgeStyle;rounded=0;orthogonalLoop=1;jettySize=auto;html=1;exitX=0.5;exitY=1;exitDx=0;exitDy=0;entryX=0.5;entryY=0;entryDx=0;entryDy=0;" parent="6ck5ZuqBizO2XTnhr9Wt-1" source="M0ijtTFeE1uEV9YMx1Uk-5" target="M0ijtTFeE1uEV9YMx1Uk-6" edge="1">
          <mxGeometry relative="1" as="geometry"/>
        </mxCell>
        <mxCell id="M0ijtTFeE1uEV9YMx1Uk-8" style="edgeStyle=orthogonalEdgeStyle;rounded=0;orthogonalLoop=1;jettySize=auto;html=1;exitX=0.75;exitY=1;exitDx=0;exitDy=0;entryX=0.5;entryY=0;entryDx=0;entryDy=0;" parent="6ck5ZuqBizO2XTnhr9Wt-1" source="M0ijtTFeE1uEV9YMx1Uk-0" target="M0ijtTFeE1uEV9YMx1Uk-5" edge="1">
          <mxGeometry relative="1" as="geometry"/>
        </mxCell>
        <mxCell id="M0ijtTFeE1uEV9YMx1Uk-5" value="&lt;span style=&quot;font-size: 18px&quot;&gt;查看行详情&lt;/span&gt;" style="rounded=1;whiteSpace=wrap;html=1;fillColor=none;" parent="6ck5ZuqBizO2XTnhr9Wt-1" vertex="1">
          <mxGeometry x="429.5" y="490" width="120" height="60" as="geometry"/>
        </mxCell>
        <mxCell id="M0ijtTFeE1uEV9YMx1Uk-13" style="edgeStyle=orthogonalEdgeStyle;rounded=0;orthogonalLoop=1;jettySize=auto;html=1;exitX=0.5;exitY=1;exitDx=0;exitDy=0;entryX=0.75;entryY=0;entryDx=0;entryDy=0;" parent="6ck5ZuqBizO2XTnhr9Wt-1" source="M0ijtTFeE1uEV9YMx1Uk-6" target="M0ijtTFeE1uEV9YMx1Uk-9" edge="1">
          <mxGeometry relative="1" as="geometry"/>
        </mxCell>
        <mxCell id="M0ijtTFeE1uEV9YMx1Uk-6" value="&lt;span style=&quot;font-size: 18px&quot;&gt;渲染详情组件&lt;/span&gt;" style="rounded=1;whiteSpace=wrap;html=1;fillColor=none;" parent="6ck5ZuqBizO2XTnhr9Wt-1" vertex="1">
          <mxGeometry x="428" y="570" width="120" height="60" as="geometry"/>
        </mxCell>
        <mxCell id="_j-JpeazoExV5bAJimLr-7" style="edgeStyle=orthogonalEdgeStyle;rounded=0;orthogonalLoop=1;jettySize=auto;html=1;exitX=0.5;exitY=1;exitDx=0;exitDy=0;" parent="6ck5ZuqBizO2XTnhr9Wt-1" source="M0ijtTFeE1uEV9YMx1Uk-9" target="_j-JpeazoExV5bAJimLr-0" edge="1">
          <mxGeometry relative="1" as="geometry"/>
        </mxCell>
        <mxCell id="M0ijtTFeE1uEV9YMx1Uk-9" value="" style="rounded=0;whiteSpace=wrap;html=1;fillColor=#000000;" parent="6ck5ZuqBizO2XTnhr9Wt-1" vertex="1">
          <mxGeometry x="343" y="660" width="130" height="10" as="geometry"/>
        </mxCell>
        <mxCell id="M0ijtTFeE1uEV9YMx1Uk-18" value="&lt;font style=&quot;font-size: 14px&quot;&gt;已拒绝&lt;/font&gt;" style="text;html=1;" parent="6ck5ZuqBizO2XTnhr9Wt-1" vertex="1">
          <mxGeometry x="430" y="330" width="60" height="30" as="geometry"/>
        </mxCell>
        <mxCell id="M0ijtTFeE1uEV9YMx1Uk-19" value="&lt;font style=&quot;font-size: 14px&quot;&gt;已接受&lt;/font&gt;" style="text;html=1;" parent="6ck5ZuqBizO2XTnhr9Wt-1" vertex="1">
          <mxGeometry x="500" y="280" width="70" height="30" as="geometry"/>
        </mxCell>
        <mxCell id="M0ijtTFeE1uEV9YMx1Uk-22" style="edgeStyle=orthogonalEdgeStyle;rounded=0;orthogonalLoop=1;jettySize=auto;html=1;exitX=0.5;exitY=1;exitDx=0;exitDy=0;entryX=0.5;entryY=0;entryDx=0;entryDy=0;" parent="6ck5ZuqBizO2XTnhr9Wt-1" source="M0ijtTFeE1uEV9YMx1Uk-20" edge="1">
          <mxGeometry relative="1" as="geometry">
            <mxPoint x="647.5" y="445" as="targetPoint"/>
          </mxGeometry>
        </mxCell>
        <mxCell id="M0ijtTFeE1uEV9YMx1Uk-20" value="&lt;font style=&quot;font-size: 18px&quot;&gt;渲染文档&lt;br&gt;已接受组件&lt;/font&gt;" style="rounded=1;whiteSpace=wrap;html=1;fillColor=none;" parent="6ck5ZuqBizO2XTnhr9Wt-1" vertex="1">
          <mxGeometry x="586.5" y="360" width="120" height="60" as="geometry"/>
        </mxCell>
        <mxCell id="M0ijtTFeE1uEV9YMx1Uk-33" style="edgeStyle=orthogonalEdgeStyle;rounded=0;orthogonalLoop=1;jettySize=auto;html=1;exitX=0.5;exitY=1;exitDx=0;exitDy=0;entryX=0.5;entryY=0;entryDx=0;entryDy=0;" parent="6ck5ZuqBizO2XTnhr9Wt-1" source="M0ijtTFeE1uEV9YMx1Uk-30" target="M0ijtTFeE1uEV9YMx1Uk-32" edge="1">
          <mxGeometry relative="1" as="geometry"/>
        </mxCell>
        <mxCell id="M0ijtTFeE1uEV9YMx1Uk-30" value="&lt;span style=&quot;font-size: 18px&quot;&gt;文档是否进行过协同&lt;/span&gt;" style="rounded=1;whiteSpace=wrap;html=1;fillColor=none;" parent="6ck5ZuqBizO2XTnhr9Wt-1" vertex="1">
          <mxGeometry x="586.5" y="445" width="120" height="60" as="geometry"/>
        </mxCell>
        <mxCell id="M0ijtTFeE1uEV9YMx1Uk-40" style="edgeStyle=orthogonalEdgeStyle;rounded=0;orthogonalLoop=1;jettySize=auto;html=1;exitX=0.5;exitY=1;exitDx=0;exitDy=0;entryX=0.5;entryY=0;entryDx=0;entryDy=0;" parent="6ck5ZuqBizO2XTnhr9Wt-1" source="M0ijtTFeE1uEV9YMx1Uk-32" target="M0ijtTFeE1uEV9YMx1Uk-39" edge="1">
          <mxGeometry relative="1" as="geometry"/>
        </mxCell>
        <mxCell id="M0ijtTFeE1uEV9YMx1Uk-41" style="edgeStyle=orthogonalEdgeStyle;rounded=0;orthogonalLoop=1;jettySize=auto;html=1;exitX=1;exitY=0.5;exitDx=0;exitDy=0;" parent="6ck5ZuqBizO2XTnhr9Wt-1" source="M0ijtTFeE1uEV9YMx1Uk-32" target="M0ijtTFeE1uEV9YMx1Uk-34" edge="1">
          <mxGeometry relative="1" as="geometry"/>
        </mxCell>
        <mxCell id="M0ijtTFeE1uEV9YMx1Uk-32" value="" style="rhombus;whiteSpace=wrap;html=1;fillColor=none;" parent="6ck5ZuqBizO2XTnhr9Wt-1" vertex="1">
          <mxGeometry x="626.5" y="530" width="40" height="40" as="geometry"/>
        </mxCell>
        <mxCell id="M0ijtTFeE1uEV9YMx1Uk-42" style="edgeStyle=orthogonalEdgeStyle;rounded=0;orthogonalLoop=1;jettySize=auto;html=1;exitX=0.5;exitY=1;exitDx=0;exitDy=0;entryX=1;entryY=0.5;entryDx=0;entryDy=0;" parent="6ck5ZuqBizO2XTnhr9Wt-1" source="M0ijtTFeE1uEV9YMx1Uk-34" target="M0ijtTFeE1uEV9YMx1Uk-39" edge="1">
          <mxGeometry relative="1" as="geometry"/>
        </mxCell>
        <mxCell id="M0ijtTFeE1uEV9YMx1Uk-34" value="&lt;span style=&quot;font-size: 18px&quot;&gt;渲染协同历史组件&lt;/span&gt;" style="rounded=1;whiteSpace=wrap;html=1;fillColor=none;" parent="6ck5ZuqBizO2XTnhr9Wt-1" vertex="1">
          <mxGeometry x="670" y="580" width="120" height="60" as="geometry"/>
        </mxCell>
        <mxCell id="M0ijtTFeE1uEV9YMx1Uk-44" style="edgeStyle=orthogonalEdgeStyle;rounded=0;orthogonalLoop=1;jettySize=auto;html=1;exitX=0.5;exitY=1;exitDx=0;exitDy=0;entryX=0.5;entryY=0;entryDx=0;entryDy=0;" parent="6ck5ZuqBizO2XTnhr9Wt-1" source="M0ijtTFeE1uEV9YMx1Uk-39" target="M0ijtTFeE1uEV9YMx1Uk-43" edge="1">
          <mxGeometry relative="1" as="geometry"/>
        </mxCell>
        <mxCell id="M0ijtTFeE1uEV9YMx1Uk-39" value="" style="rhombus;whiteSpace=wrap;html=1;fillColor=none;" parent="6ck5ZuqBizO2XTnhr9Wt-1" vertex="1">
          <mxGeometry x="626.5" y="650" width="40" height="40" as="geometry"/>
        </mxCell>
        <mxCell id="M0ijtTFeE1uEV9YMx1Uk-50" style="edgeStyle=orthogonalEdgeStyle;rounded=0;orthogonalLoop=1;jettySize=auto;html=1;exitX=0.5;exitY=1;exitDx=0;exitDy=0;" parent="6ck5ZuqBizO2XTnhr9Wt-1" source="M0ijtTFeE1uEV9YMx1Uk-43" target="M0ijtTFeE1uEV9YMx1Uk-47" edge="1">
          <mxGeometry relative="1" as="geometry"/>
        </mxCell>
        <mxCell id="M0ijtTFeE1uEV9YMx1Uk-43" value="&lt;span style=&quot;font-size: 18px&quot;&gt;是否为卖家&lt;/span&gt;" style="rounded=1;whiteSpace=wrap;html=1;fillColor=none;" parent="6ck5ZuqBizO2XTnhr9Wt-1" vertex="1">
          <mxGeometry x="586.5" y="710" width="120" height="60" as="geometry"/>
        </mxCell>
        <mxCell id="_j-JpeazoExV5bAJimLr-8" style="edgeStyle=orthogonalEdgeStyle;rounded=0;orthogonalLoop=1;jettySize=auto;html=1;exitX=0;exitY=0.5;exitDx=0;exitDy=0;entryX=0.5;entryY=1;entryDx=0;entryDy=0;" parent="6ck5ZuqBizO2XTnhr9Wt-1" source="M0ijtTFeE1uEV9YMx1Uk-45" target="_j-JpeazoExV5bAJimLr-0" edge="1">
          <mxGeometry relative="1" as="geometry"/>
        </mxCell>
        <mxCell id="M0ijtTFeE1uEV9YMx1Uk-45" value="&lt;span style=&quot;font-size: 18px&quot;&gt;渲染开票类型组件&lt;/span&gt;" style="rounded=1;whiteSpace=wrap;html=1;fillColor=none;" parent="6ck5ZuqBizO2XTnhr9Wt-1" vertex="1">
          <mxGeometry x="586.5" y="860" width="120" height="60" as="geometry"/>
        </mxCell>
        <mxCell id="M0ijtTFeE1uEV9YMx1Uk-51" style="edgeStyle=orthogonalEdgeStyle;rounded=0;orthogonalLoop=1;jettySize=auto;html=1;exitX=0.5;exitY=1;exitDx=0;exitDy=0;entryX=0.5;entryY=0;entryDx=0;entryDy=0;" parent="6ck5ZuqBizO2XTnhr9Wt-1" source="M0ijtTFeE1uEV9YMx1Uk-47" target="M0ijtTFeE1uEV9YMx1Uk-45" edge="1">
          <mxGeometry relative="1" as="geometry"/>
        </mxCell>
        <mxCell id="_j-JpeazoExV5bAJimLr-5" style="edgeStyle=orthogonalEdgeStyle;rounded=0;orthogonalLoop=1;jettySize=auto;html=1;exitX=0;exitY=0.5;exitDx=0;exitDy=0;entryX=1;entryY=0.5;entryDx=0;entryDy=0;" parent="6ck5ZuqBizO2XTnhr9Wt-1" source="M0ijtTFeE1uEV9YMx1Uk-47" target="_j-JpeazoExV5bAJimLr-0" edge="1">
          <mxGeometry relative="1" as="geometry"/>
        </mxCell>
        <mxCell id="M0ijtTFeE1uEV9YMx1Uk-47" value="" style="rhombus;whiteSpace=wrap;html=1;fillColor=none;" parent="6ck5ZuqBizO2XTnhr9Wt-1" vertex="1">
          <mxGeometry x="626.5" y="790" width="40" height="40" as="geometry"/>
        </mxCell>
        <mxCell id="_j-JpeazoExV5bAJimLr-0" value="" style="ellipse;html=1;shape=endState;fillColor=#000000;strokeColor=#000000;" parent="6ck5ZuqBizO2XTnhr9Wt-1" vertex="1">
          <mxGeometry x="393" y="795" width="30" height="30" as="geometry"/>
        </mxCell>
        <mxCell id="_j-JpeazoExV5bAJimLr-9" value="&lt;font style=&quot;font-size: 14px&quot;&gt;否&lt;/font&gt;" style="text;html=1;resizable=0;points=[];autosize=1;align=left;verticalAlign=top;spacingTop=-4;" parent="6ck5ZuqBizO2XTnhr9Wt-1" vertex="1">
          <mxGeometry x="564" y="790" width="30" height="20" as="geometry"/>
        </mxCell>
        <mxCell id="_j-JpeazoExV5bAJimLr-10" value="&lt;font style=&quot;font-size: 14px&quot;&gt;是&lt;/font&gt;" style="text;html=1;" parent="6ck5ZuqBizO2XTnhr9Wt-1" vertex="1">
          <mxGeometry x="670" y="830" width="40" height="40" as="geometry"/>
        </mxCell>
        <mxCell id="_j-JpeazoExV5bAJimLr-11" value="&lt;font style=&quot;font-size: 14px&quot;&gt;是&lt;/font&gt;" style="text;html=1;resizable=0;points=[];autosize=1;align=left;verticalAlign=top;spacingTop=-4;" parent="6ck5ZuqBizO2XTnhr9Wt-1" vertex="1">
          <mxGeometry x="718" y="527" width="30" height="20" as="geometry"/>
        </mxCell>
        <mxCell id="_j-JpeazoExV5bAJimLr-12" value="&lt;font style=&quot;font-size: 14px&quot;&gt;否&lt;/font&gt;" style="text;html=1;" parent="6ck5ZuqBizO2XTnhr9Wt-1" vertex="1">
          <mxGeometry x="620" y="600" width="50" height="30" as="geometry"/>
        </mxCell>
      </root>
    </mxGraphModel>
  </diagram>
  <diagram id="gC3p6zmcqVg3YaKq3j7N" name="配置模块">
    <mxGraphModel dx="2066" dy="1082" grid="1" gridSize="10" guides="1" tooltips="1" connect="1" arrows="1" fold="1" page="1" pageScale="1" pageWidth="827" pageHeight="1169" math="0" shadow="0">
      <root>
        <mxCell id="ASk81csLXPlOufmrb-e4-0"/>
        <mxCell id="ASk81csLXPlOufmrb-e4-1" parent="ASk81csLXPlOufmrb-e4-0"/>
        <mxCell id="d1ZiKe6v6J3D1G2TMavj-0" style="edgeStyle=orthogonalEdgeStyle;rounded=0;orthogonalLoop=1;jettySize=auto;html=1;exitX=0.5;exitY=1;exitDx=0;exitDy=0;entryX=0.5;entryY=0;entryDx=0;entryDy=0;" parent="ASk81csLXPlOufmrb-e4-1" source="d1ZiKe6v6J3D1G2TMavj-1" target="d1ZiKe6v6J3D1G2TMavj-3" edge="1">
          <mxGeometry relative="1" as="geometry"/>
        </mxCell>
        <mxCell id="d1ZiKe6v6J3D1G2TMavj-1" value="" style="ellipse;whiteSpace=wrap;html=1;aspect=fixed;fillColor=#000000;" parent="ASk81csLXPlOufmrb-e4-1" vertex="1">
          <mxGeometry x="398" y="60" width="30" height="30" as="geometry"/>
        </mxCell>
        <mxCell id="d1ZiKe6v6J3D1G2TMavj-2" style="edgeStyle=orthogonalEdgeStyle;rounded=0;orthogonalLoop=1;jettySize=auto;html=1;exitX=0.5;exitY=1;exitDx=0;exitDy=0;" parent="ASk81csLXPlOufmrb-e4-1" source="d1ZiKe6v6J3D1G2TMavj-3" edge="1">
          <mxGeometry relative="1" as="geometry">
            <mxPoint x="413" y="200" as="targetPoint"/>
          </mxGeometry>
        </mxCell>
        <mxCell id="d1ZiKe6v6J3D1G2TMavj-3" value="&lt;span style=&quot;font-size: 18px&quot;&gt;模块加载&lt;/span&gt;" style="rounded=1;whiteSpace=wrap;html=1;fillColor=none;" parent="ASk81csLXPlOufmrb-e4-1" vertex="1">
          <mxGeometry x="353" y="110" width="120" height="60" as="geometry"/>
        </mxCell>
        <mxCell id="ug5MgOmhdK6F9uVVqbYR-39" style="edgeStyle=orthogonalEdgeStyle;rounded=0;orthogonalLoop=1;jettySize=auto;html=1;exitX=0.25;exitY=1;exitDx=0;exitDy=0;entryX=0.5;entryY=0;entryDx=0;entryDy=0;" parent="ASk81csLXPlOufmrb-e4-1" source="ug5MgOmhdK6F9uVVqbYR-0" target="ug5MgOmhdK6F9uVVqbYR-6" edge="1">
          <mxGeometry relative="1" as="geometry">
            <Array as="points">
              <mxPoint x="386" y="220"/>
              <mxPoint x="230" y="220"/>
            </Array>
          </mxGeometry>
        </mxCell>
        <mxCell id="Y14sTjWWQYVcK2IU2r9V-3" style="edgeStyle=orthogonalEdgeStyle;rounded=0;orthogonalLoop=1;jettySize=auto;html=1;exitX=0.75;exitY=1;exitDx=0;exitDy=0;entryX=0.5;entryY=0;entryDx=0;entryDy=0;" parent="ASk81csLXPlOufmrb-e4-1" source="ug5MgOmhdK6F9uVVqbYR-0" target="ug5MgOmhdK6F9uVVqbYR-7" edge="1">
          <mxGeometry relative="1" as="geometry">
            <Array as="points">
              <mxPoint x="451" y="220"/>
              <mxPoint x="615" y="220"/>
            </Array>
          </mxGeometry>
        </mxCell>
        <mxCell id="ug5MgOmhdK6F9uVVqbYR-0" value="" style="rounded=0;whiteSpace=wrap;html=1;fillColor=#000000;" parent="ASk81csLXPlOufmrb-e4-1" vertex="1">
          <mxGeometry x="353" y="195" width="130" height="10" as="geometry"/>
        </mxCell>
        <mxCell id="ug5MgOmhdK6F9uVVqbYR-3" style="edgeStyle=orthogonalEdgeStyle;rounded=0;orthogonalLoop=1;jettySize=auto;html=1;exitX=0.75;exitY=1;exitDx=0;exitDy=0;entryX=0.75;entryY=0;entryDx=0;entryDy=0;" parent="ASk81csLXPlOufmrb-e4-1" source="ug5MgOmhdK6F9uVVqbYR-0" target="ug5MgOmhdK6F9uVVqbYR-0" edge="1">
          <mxGeometry relative="1" as="geometry"/>
        </mxCell>
        <mxCell id="ug5MgOmhdK6F9uVVqbYR-27" style="edgeStyle=orthogonalEdgeStyle;rounded=0;orthogonalLoop=1;jettySize=auto;html=1;exitX=0.5;exitY=1;exitDx=0;exitDy=0;entryX=0.5;entryY=0;entryDx=0;entryDy=0;" parent="ASk81csLXPlOufmrb-e4-1" source="ug5MgOmhdK6F9uVVqbYR-6" target="ug5MgOmhdK6F9uVVqbYR-11" edge="1">
          <mxGeometry relative="1" as="geometry"/>
        </mxCell>
        <mxCell id="ug5MgOmhdK6F9uVVqbYR-6" value="&lt;span style=&quot;font-size: 18px&quot;&gt;对账单配置&lt;/span&gt;" style="rounded=1;whiteSpace=wrap;html=1;fillColor=none;" parent="ASk81csLXPlOufmrb-e4-1" vertex="1">
          <mxGeometry x="170" y="240" width="120" height="60" as="geometry"/>
        </mxCell>
        <mxCell id="Y14sTjWWQYVcK2IU2r9V-4" style="edgeStyle=orthogonalEdgeStyle;rounded=0;orthogonalLoop=1;jettySize=auto;html=1;exitX=0.5;exitY=1;exitDx=0;exitDy=0;entryX=0.5;entryY=0;entryDx=0;entryDy=0;" parent="ASk81csLXPlOufmrb-e4-1" source="ug5MgOmhdK6F9uVVqbYR-7" target="ug5MgOmhdK6F9uVVqbYR-41" edge="1">
          <mxGeometry relative="1" as="geometry"/>
        </mxCell>
        <mxCell id="ug5MgOmhdK6F9uVVqbYR-7" value="&lt;span style=&quot;font-size: 18px&quot;&gt;形式发票配置&lt;/span&gt;" style="rounded=1;whiteSpace=wrap;html=1;fillColor=none;" parent="ASk81csLXPlOufmrb-e4-1" vertex="1">
          <mxGeometry x="555" y="240" width="120" height="60" as="geometry"/>
        </mxCell>
        <mxCell id="ug5MgOmhdK6F9uVVqbYR-19" style="edgeStyle=orthogonalEdgeStyle;rounded=0;orthogonalLoop=1;jettySize=auto;html=1;exitX=0.25;exitY=1;exitDx=0;exitDy=0;entryX=0.5;entryY=0;entryDx=0;entryDy=0;" parent="ASk81csLXPlOufmrb-e4-1" source="ug5MgOmhdK6F9uVVqbYR-11" target="ug5MgOmhdK6F9uVVqbYR-16" edge="1">
          <mxGeometry relative="1" as="geometry">
            <Array as="points">
              <mxPoint x="188" y="360"/>
              <mxPoint x="100" y="360"/>
            </Array>
          </mxGeometry>
        </mxCell>
        <mxCell id="ug5MgOmhdK6F9uVVqbYR-23" style="edgeStyle=orthogonalEdgeStyle;rounded=0;orthogonalLoop=1;jettySize=auto;html=1;exitX=0.5;exitY=1;exitDx=0;exitDy=0;" parent="ASk81csLXPlOufmrb-e4-1" source="ug5MgOmhdK6F9uVVqbYR-11" target="ug5MgOmhdK6F9uVVqbYR-22" edge="1">
          <mxGeometry relative="1" as="geometry"/>
        </mxCell>
        <mxCell id="Y14sTjWWQYVcK2IU2r9V-1" style="edgeStyle=orthogonalEdgeStyle;rounded=0;orthogonalLoop=1;jettySize=auto;html=1;exitX=0.75;exitY=1;exitDx=0;exitDy=0;" parent="ASk81csLXPlOufmrb-e4-1" source="ug5MgOmhdK6F9uVVqbYR-11" target="ug5MgOmhdK6F9uVVqbYR-25" edge="1">
          <mxGeometry relative="1" as="geometry">
            <Array as="points">
              <mxPoint x="273" y="360"/>
              <mxPoint x="358" y="360"/>
            </Array>
          </mxGeometry>
        </mxCell>
        <mxCell id="ug5MgOmhdK6F9uVVqbYR-11" value="" style="rounded=0;whiteSpace=wrap;html=1;fillColor=#000000;" parent="ASk81csLXPlOufmrb-e4-1" vertex="1">
          <mxGeometry x="145" y="330" width="170" height="10" as="geometry"/>
        </mxCell>
        <mxCell id="ug5MgOmhdK6F9uVVqbYR-18" style="edgeStyle=orthogonalEdgeStyle;rounded=0;orthogonalLoop=1;jettySize=auto;html=1;exitX=0.5;exitY=1;exitDx=0;exitDy=0;entryX=0.5;entryY=0;entryDx=0;entryDy=0;" parent="ASk81csLXPlOufmrb-e4-1" source="ug5MgOmhdK6F9uVVqbYR-16" target="ug5MgOmhdK6F9uVVqbYR-17" edge="1">
          <mxGeometry relative="1" as="geometry"/>
        </mxCell>
        <mxCell id="ug5MgOmhdK6F9uVVqbYR-16" value="&lt;span style=&quot;font-size: 18px&quot;&gt;隐藏对账单&lt;br&gt;数量/价格&lt;/span&gt;" style="rounded=1;whiteSpace=wrap;html=1;fillColor=none;" parent="ASk81csLXPlOufmrb-e4-1" vertex="1">
          <mxGeometry x="40" y="385" width="120" height="60" as="geometry"/>
        </mxCell>
        <mxCell id="ug5MgOmhdK6F9uVVqbYR-20" style="edgeStyle=orthogonalEdgeStyle;rounded=0;orthogonalLoop=1;jettySize=auto;html=1;exitX=0.5;exitY=1;exitDx=0;exitDy=0;" parent="ASk81csLXPlOufmrb-e4-1" source="ug5MgOmhdK6F9uVVqbYR-17" edge="1">
          <mxGeometry relative="1" as="geometry">
            <mxPoint x="100" y="565" as="targetPoint"/>
          </mxGeometry>
        </mxCell>
        <mxCell id="ug5MgOmhdK6F9uVVqbYR-17" value="&lt;span style=&quot;font-size: 18px&quot;&gt;加载卖家列表并选择&lt;/span&gt;" style="rounded=1;whiteSpace=wrap;html=1;fillColor=none;" parent="ASk81csLXPlOufmrb-e4-1" vertex="1">
          <mxGeometry x="40" y="475" width="120" height="60" as="geometry"/>
        </mxCell>
        <mxCell id="ug5MgOmhdK6F9uVVqbYR-37" style="edgeStyle=orthogonalEdgeStyle;rounded=0;orthogonalLoop=1;jettySize=auto;html=1;exitX=0.5;exitY=1;exitDx=0;exitDy=0;entryX=0;entryY=0.5;entryDx=0;entryDy=0;" parent="ASk81csLXPlOufmrb-e4-1" source="ug5MgOmhdK6F9uVVqbYR-21" target="ug5MgOmhdK6F9uVVqbYR-34" edge="1">
          <mxGeometry relative="1" as="geometry"/>
        </mxCell>
        <mxCell id="ug5MgOmhdK6F9uVVqbYR-21" value="&lt;span style=&quot;font-size: 18px&quot;&gt;保存卖家ID&lt;/span&gt;" style="rounded=1;whiteSpace=wrap;html=1;fillColor=none;" parent="ASk81csLXPlOufmrb-e4-1" vertex="1">
          <mxGeometry x="40" y="565" width="120" height="60" as="geometry"/>
        </mxCell>
        <mxCell id="ug5MgOmhdK6F9uVVqbYR-30" style="edgeStyle=orthogonalEdgeStyle;rounded=0;orthogonalLoop=1;jettySize=auto;html=1;exitX=0.5;exitY=1;exitDx=0;exitDy=0;entryX=0.5;entryY=0;entryDx=0;entryDy=0;" parent="ASk81csLXPlOufmrb-e4-1" source="ug5MgOmhdK6F9uVVqbYR-22" target="ug5MgOmhdK6F9uVVqbYR-29" edge="1">
          <mxGeometry relative="1" as="geometry"/>
        </mxCell>
        <mxCell id="ug5MgOmhdK6F9uVVqbYR-22" value="&lt;span style=&quot;font-size: 18px&quot;&gt;连带勾选&lt;/span&gt;" style="rounded=1;whiteSpace=wrap;html=1;fillColor=none;" parent="ASk81csLXPlOufmrb-e4-1" vertex="1">
          <mxGeometry x="170" y="385" width="120" height="60" as="geometry"/>
        </mxCell>
        <mxCell id="ug5MgOmhdK6F9uVVqbYR-36" style="edgeStyle=orthogonalEdgeStyle;rounded=0;orthogonalLoop=1;jettySize=auto;html=1;exitX=0.5;exitY=1;exitDx=0;exitDy=0;entryX=1;entryY=0.5;entryDx=0;entryDy=0;" parent="ASk81csLXPlOufmrb-e4-1" source="ug5MgOmhdK6F9uVVqbYR-25" target="ug5MgOmhdK6F9uVVqbYR-34" edge="1">
          <mxGeometry relative="1" as="geometry"/>
        </mxCell>
        <mxCell id="ug5MgOmhdK6F9uVVqbYR-25" value="&lt;span style=&quot;font-size: 18px&quot;&gt;数量不为负&lt;/span&gt;" style="rounded=1;whiteSpace=wrap;html=1;fillColor=none;" parent="ASk81csLXPlOufmrb-e4-1" vertex="1">
          <mxGeometry x="298" y="476" width="120" height="60" as="geometry"/>
        </mxCell>
        <mxCell id="ug5MgOmhdK6F9uVVqbYR-32" style="edgeStyle=orthogonalEdgeStyle;rounded=0;orthogonalLoop=1;jettySize=auto;html=1;exitX=0.5;exitY=1;exitDx=0;exitDy=0;entryX=0.5;entryY=0;entryDx=0;entryDy=0;" parent="ASk81csLXPlOufmrb-e4-1" source="ug5MgOmhdK6F9uVVqbYR-29" target="ug5MgOmhdK6F9uVVqbYR-31" edge="1">
          <mxGeometry relative="1" as="geometry"/>
        </mxCell>
        <mxCell id="ug5MgOmhdK6F9uVVqbYR-29" value="&lt;span style=&quot;font-size: 18px&quot;&gt;加载对账单行基本字段&lt;/span&gt;" style="rounded=1;whiteSpace=wrap;html=1;fillColor=none;" parent="ASk81csLXPlOufmrb-e4-1" vertex="1">
          <mxGeometry x="170" y="475" width="120" height="60" as="geometry"/>
        </mxCell>
        <mxCell id="ug5MgOmhdK6F9uVVqbYR-35" style="edgeStyle=orthogonalEdgeStyle;rounded=0;orthogonalLoop=1;jettySize=auto;html=1;exitX=0.5;exitY=1;exitDx=0;exitDy=0;" parent="ASk81csLXPlOufmrb-e4-1" source="ug5MgOmhdK6F9uVVqbYR-31" target="ug5MgOmhdK6F9uVVqbYR-34" edge="1">
          <mxGeometry relative="1" as="geometry"/>
        </mxCell>
        <mxCell id="ug5MgOmhdK6F9uVVqbYR-31" value="&lt;span style=&quot;font-size: 18px&quot;&gt;保存字段&lt;/span&gt;" style="rounded=1;whiteSpace=wrap;html=1;fillColor=none;" parent="ASk81csLXPlOufmrb-e4-1" vertex="1">
          <mxGeometry x="170" y="565" width="120" height="60" as="geometry"/>
        </mxCell>
        <mxCell id="ug5MgOmhdK6F9uVVqbYR-59" style="edgeStyle=orthogonalEdgeStyle;rounded=0;orthogonalLoop=1;jettySize=auto;html=1;exitX=0.5;exitY=1;exitDx=0;exitDy=0;" parent="ASk81csLXPlOufmrb-e4-1" source="ug5MgOmhdK6F9uVVqbYR-34" edge="1">
          <mxGeometry relative="1" as="geometry">
            <mxPoint x="230" y="700" as="targetPoint"/>
          </mxGeometry>
        </mxCell>
        <mxCell id="ug5MgOmhdK6F9uVVqbYR-34" value="" style="rounded=0;whiteSpace=wrap;html=1;fillColor=#000000;" parent="ASk81csLXPlOufmrb-e4-1" vertex="1">
          <mxGeometry x="145" y="660" width="170" height="10" as="geometry"/>
        </mxCell>
        <mxCell id="ug5MgOmhdK6F9uVVqbYR-44" style="edgeStyle=orthogonalEdgeStyle;rounded=0;orthogonalLoop=1;jettySize=auto;html=1;exitX=0.25;exitY=1;exitDx=0;exitDy=0;entryX=0.5;entryY=0;entryDx=0;entryDy=0;" parent="ASk81csLXPlOufmrb-e4-1" source="ug5MgOmhdK6F9uVVqbYR-41" target="ug5MgOmhdK6F9uVVqbYR-43" edge="1">
          <mxGeometry relative="1" as="geometry"/>
        </mxCell>
        <mxCell id="ug5MgOmhdK6F9uVVqbYR-53" style="edgeStyle=orthogonalEdgeStyle;rounded=0;orthogonalLoop=1;jettySize=auto;html=1;exitX=0.75;exitY=1;exitDx=0;exitDy=0;entryX=0.5;entryY=0;entryDx=0;entryDy=0;" parent="ASk81csLXPlOufmrb-e4-1" source="ug5MgOmhdK6F9uVVqbYR-41" target="ug5MgOmhdK6F9uVVqbYR-49" edge="1">
          <mxGeometry relative="1" as="geometry">
            <Array as="points">
              <mxPoint x="615" y="340"/>
            </Array>
          </mxGeometry>
        </mxCell>
        <mxCell id="Y14sTjWWQYVcK2IU2r9V-5" style="edgeStyle=orthogonalEdgeStyle;rounded=0;orthogonalLoop=1;jettySize=auto;html=1;exitX=0.75;exitY=1;exitDx=0;exitDy=0;entryX=0.5;entryY=0;entryDx=0;entryDy=0;" parent="ASk81csLXPlOufmrb-e4-1" source="ug5MgOmhdK6F9uVVqbYR-41" target="Y14sTjWWQYVcK2IU2r9V-2" edge="1">
          <mxGeometry relative="1" as="geometry">
            <Array as="points">
              <mxPoint x="666" y="360"/>
              <mxPoint x="745" y="360"/>
            </Array>
          </mxGeometry>
        </mxCell>
        <mxCell id="ug5MgOmhdK6F9uVVqbYR-41" value="" style="rounded=0;whiteSpace=wrap;html=1;fillColor=#000000;" parent="ASk81csLXPlOufmrb-e4-1" vertex="1">
          <mxGeometry x="505" y="330" width="215" height="10" as="geometry"/>
        </mxCell>
        <mxCell id="ug5MgOmhdK6F9uVVqbYR-46" style="edgeStyle=orthogonalEdgeStyle;rounded=0;orthogonalLoop=1;jettySize=auto;html=1;exitX=0.5;exitY=1;exitDx=0;exitDy=0;entryX=0.5;entryY=0;entryDx=0;entryDy=0;" parent="ASk81csLXPlOufmrb-e4-1" source="ug5MgOmhdK6F9uVVqbYR-43" target="ug5MgOmhdK6F9uVVqbYR-45" edge="1">
          <mxGeometry relative="1" as="geometry"/>
        </mxCell>
        <mxCell id="ug5MgOmhdK6F9uVVqbYR-43" value="&lt;span style=&quot;font-size: 18px&quot;&gt;控制行编辑权限&lt;/span&gt;" style="rounded=1;whiteSpace=wrap;html=1;fillColor=none;" parent="ASk81csLXPlOufmrb-e4-1" vertex="1">
          <mxGeometry x="428" y="385" width="120" height="60" as="geometry"/>
        </mxCell>
        <mxCell id="ug5MgOmhdK6F9uVVqbYR-48" style="edgeStyle=orthogonalEdgeStyle;rounded=0;orthogonalLoop=1;jettySize=auto;html=1;exitX=0.5;exitY=1;exitDx=0;exitDy=0;entryX=0.5;entryY=0;entryDx=0;entryDy=0;" parent="ASk81csLXPlOufmrb-e4-1" source="ug5MgOmhdK6F9uVVqbYR-45" target="ug5MgOmhdK6F9uVVqbYR-47" edge="1">
          <mxGeometry relative="1" as="geometry"/>
        </mxCell>
        <mxCell id="ug5MgOmhdK6F9uVVqbYR-45" value="&lt;span style=&quot;font-size: 18px&quot;&gt;加载对账单行基本字段&lt;/span&gt;" style="rounded=1;whiteSpace=wrap;html=1;fillColor=none;" parent="ASk81csLXPlOufmrb-e4-1" vertex="1">
          <mxGeometry x="428" y="475" width="120" height="60" as="geometry"/>
        </mxCell>
        <mxCell id="ug5MgOmhdK6F9uVVqbYR-55" style="edgeStyle=orthogonalEdgeStyle;rounded=0;orthogonalLoop=1;jettySize=auto;html=1;exitX=0.5;exitY=1;exitDx=0;exitDy=0;entryX=0.25;entryY=0;entryDx=0;entryDy=0;" parent="ASk81csLXPlOufmrb-e4-1" source="ug5MgOmhdK6F9uVVqbYR-47" target="ug5MgOmhdK6F9uVVqbYR-54" edge="1">
          <mxGeometry relative="1" as="geometry"/>
        </mxCell>
        <mxCell id="ug5MgOmhdK6F9uVVqbYR-47" value="&lt;span style=&quot;font-size: 18px&quot;&gt;保存字段&lt;/span&gt;" style="rounded=1;whiteSpace=wrap;html=1;fillColor=none;" parent="ASk81csLXPlOufmrb-e4-1" vertex="1">
          <mxGeometry x="428" y="567.5" width="120" height="60" as="geometry"/>
        </mxCell>
        <mxCell id="ug5MgOmhdK6F9uVVqbYR-51" style="edgeStyle=orthogonalEdgeStyle;rounded=0;orthogonalLoop=1;jettySize=auto;html=1;exitX=0.5;exitY=1;exitDx=0;exitDy=0;entryX=0.5;entryY=0;entryDx=0;entryDy=0;" parent="ASk81csLXPlOufmrb-e4-1" source="ug5MgOmhdK6F9uVVqbYR-49" target="ug5MgOmhdK6F9uVVqbYR-50" edge="1">
          <mxGeometry relative="1" as="geometry"/>
        </mxCell>
        <mxCell id="ug5MgOmhdK6F9uVVqbYR-49" value="&lt;span style=&quot;font-size: 18px&quot;&gt;自动审批&lt;/span&gt;" style="rounded=1;whiteSpace=wrap;html=1;fillColor=none;" parent="ASk81csLXPlOufmrb-e4-1" vertex="1">
          <mxGeometry x="555" y="385" width="120" height="60" as="geometry"/>
        </mxCell>
        <mxCell id="ug5MgOmhdK6F9uVVqbYR-57" style="edgeStyle=orthogonalEdgeStyle;rounded=0;orthogonalLoop=1;jettySize=auto;html=1;exitX=0.5;exitY=1;exitDx=0;exitDy=0;entryX=0.5;entryY=0;entryDx=0;entryDy=0;" parent="ASk81csLXPlOufmrb-e4-1" source="ug5MgOmhdK6F9uVVqbYR-50" target="ug5MgOmhdK6F9uVVqbYR-52" edge="1">
          <mxGeometry relative="1" as="geometry"/>
        </mxCell>
        <mxCell id="ug5MgOmhdK6F9uVVqbYR-50" value="&lt;span style=&quot;font-size: 18px&quot;&gt;选择数量/价格&lt;/span&gt;" style="rounded=1;whiteSpace=wrap;html=1;fillColor=none;" parent="ASk81csLXPlOufmrb-e4-1" vertex="1">
          <mxGeometry x="555" y="476" width="120" height="60" as="geometry"/>
        </mxCell>
        <mxCell id="ug5MgOmhdK6F9uVVqbYR-56" style="edgeStyle=orthogonalEdgeStyle;rounded=0;orthogonalLoop=1;jettySize=auto;html=1;exitX=0.5;exitY=1;exitDx=0;exitDy=0;entryX=0.75;entryY=0;entryDx=0;entryDy=0;" parent="ASk81csLXPlOufmrb-e4-1" source="ug5MgOmhdK6F9uVVqbYR-52" target="ug5MgOmhdK6F9uVVqbYR-54" edge="1">
          <mxGeometry relative="1" as="geometry"/>
        </mxCell>
        <mxCell id="ug5MgOmhdK6F9uVVqbYR-52" value="&lt;span style=&quot;font-size: 18px&quot;&gt;保存字段&lt;/span&gt;" style="rounded=1;whiteSpace=wrap;html=1;fillColor=none;" parent="ASk81csLXPlOufmrb-e4-1" vertex="1">
          <mxGeometry x="555" y="567" width="120" height="60" as="geometry"/>
        </mxCell>
        <mxCell id="ug5MgOmhdK6F9uVVqbYR-62" style="edgeStyle=orthogonalEdgeStyle;rounded=0;orthogonalLoop=1;jettySize=auto;html=1;exitX=0.5;exitY=1;exitDx=0;exitDy=0;entryX=0.5;entryY=0;entryDx=0;entryDy=0;" parent="ASk81csLXPlOufmrb-e4-1" source="ug5MgOmhdK6F9uVVqbYR-54" target="ug5MgOmhdK6F9uVVqbYR-61" edge="1">
          <mxGeometry relative="1" as="geometry"/>
        </mxCell>
        <mxCell id="ug5MgOmhdK6F9uVVqbYR-54" value="" style="rounded=0;whiteSpace=wrap;html=1;fillColor=#000000;" parent="ASk81csLXPlOufmrb-e4-1" vertex="1">
          <mxGeometry x="480" y="659" width="170" height="10" as="geometry"/>
        </mxCell>
        <mxCell id="Qs7HXl28cWjI4ocihZLx-1" style="edgeStyle=orthogonalEdgeStyle;rounded=0;orthogonalLoop=1;jettySize=auto;html=1;exitX=0.5;exitY=1;exitDx=0;exitDy=0;entryX=0.5;entryY=0;entryDx=0;entryDy=0;" parent="ASk81csLXPlOufmrb-e4-1" source="ug5MgOmhdK6F9uVVqbYR-58" target="Qs7HXl28cWjI4ocihZLx-0" edge="1">
          <mxGeometry relative="1" as="geometry"/>
        </mxCell>
        <mxCell id="ug5MgOmhdK6F9uVVqbYR-58" value="" style="rounded=0;whiteSpace=wrap;html=1;fillColor=#000000;" parent="ASk81csLXPlOufmrb-e4-1" vertex="1">
          <mxGeometry x="358" y="800" width="130" height="10" as="geometry"/>
        </mxCell>
        <mxCell id="ug5MgOmhdK6F9uVVqbYR-63" style="edgeStyle=orthogonalEdgeStyle;rounded=0;orthogonalLoop=1;jettySize=auto;html=1;exitX=0.5;exitY=1;exitDx=0;exitDy=0;entryX=0.25;entryY=0;entryDx=0;entryDy=0;" parent="ASk81csLXPlOufmrb-e4-1" source="ug5MgOmhdK6F9uVVqbYR-60" target="ug5MgOmhdK6F9uVVqbYR-58" edge="1">
          <mxGeometry relative="1" as="geometry">
            <Array as="points">
              <mxPoint x="230" y="785"/>
              <mxPoint x="391" y="785"/>
            </Array>
          </mxGeometry>
        </mxCell>
        <mxCell id="ug5MgOmhdK6F9uVVqbYR-60" value="&lt;span style=&quot;font-size: 18px&quot;&gt;保存对账单配置&lt;/span&gt;" style="rounded=1;whiteSpace=wrap;html=1;fillColor=none;" parent="ASk81csLXPlOufmrb-e4-1" vertex="1">
          <mxGeometry x="170" y="705" width="120" height="60" as="geometry"/>
        </mxCell>
        <mxCell id="ug5MgOmhdK6F9uVVqbYR-64" style="edgeStyle=orthogonalEdgeStyle;rounded=0;orthogonalLoop=1;jettySize=auto;html=1;exitX=0.5;exitY=1;exitDx=0;exitDy=0;entryX=0.75;entryY=0;entryDx=0;entryDy=0;" parent="ASk81csLXPlOufmrb-e4-1" source="ug5MgOmhdK6F9uVVqbYR-61" target="ug5MgOmhdK6F9uVVqbYR-58" edge="1">
          <mxGeometry relative="1" as="geometry"/>
        </mxCell>
        <mxCell id="ug5MgOmhdK6F9uVVqbYR-61" value="&lt;span style=&quot;font-size: 18px&quot;&gt;保存形式发票配置&lt;/span&gt;" style="rounded=1;whiteSpace=wrap;html=1;fillColor=none;" parent="ASk81csLXPlOufmrb-e4-1" vertex="1">
          <mxGeometry x="505" y="700.5" width="120" height="60" as="geometry"/>
        </mxCell>
        <mxCell id="Qs7HXl28cWjI4ocihZLx-0" value="" style="ellipse;html=1;shape=endState;fillColor=#000000;strokeColor=#000000;" parent="ASk81csLXPlOufmrb-e4-1" vertex="1">
          <mxGeometry x="408" y="840" width="30" height="30" as="geometry"/>
        </mxCell>
        <mxCell id="Y14sTjWWQYVcK2IU2r9V-7" style="edgeStyle=orthogonalEdgeStyle;rounded=0;orthogonalLoop=1;jettySize=auto;html=1;exitX=0.5;exitY=1;exitDx=0;exitDy=0;entryX=0.5;entryY=0;entryDx=0;entryDy=0;" parent="ASk81csLXPlOufmrb-e4-1" source="Y14sTjWWQYVcK2IU2r9V-2" target="Y14sTjWWQYVcK2IU2r9V-6" edge="1">
          <mxGeometry relative="1" as="geometry"/>
        </mxCell>
        <mxCell id="Y14sTjWWQYVcK2IU2r9V-2" value="&lt;span style=&quot;font-size: 18px&quot;&gt;开票类型控制&lt;/span&gt;" style="rounded=1;whiteSpace=wrap;html=1;fillColor=none;" parent="ASk81csLXPlOufmrb-e4-1" vertex="1">
          <mxGeometry x="685" y="385" width="120" height="60" as="geometry"/>
        </mxCell>
        <mxCell id="Y14sTjWWQYVcK2IU2r9V-9" value="" style="edgeStyle=orthogonalEdgeStyle;rounded=0;orthogonalLoop=1;jettySize=auto;html=1;" parent="ASk81csLXPlOufmrb-e4-1" source="Y14sTjWWQYVcK2IU2r9V-6" target="Y14sTjWWQYVcK2IU2r9V-8" edge="1">
          <mxGeometry relative="1" as="geometry"/>
        </mxCell>
        <mxCell id="Y14sTjWWQYVcK2IU2r9V-6" value="&lt;span style=&quot;font-size: 18px&quot;&gt;选择开票类型&lt;/span&gt;" style="rounded=1;whiteSpace=wrap;html=1;fillColor=none;" parent="ASk81csLXPlOufmrb-e4-1" vertex="1">
          <mxGeometry x="690" y="475" width="120" height="60" as="geometry"/>
        </mxCell>
        <mxCell id="Y14sTjWWQYVcK2IU2r9V-10" style="edgeStyle=orthogonalEdgeStyle;rounded=0;orthogonalLoop=1;jettySize=auto;html=1;exitX=0.5;exitY=1;exitDx=0;exitDy=0;entryX=1;entryY=0.5;entryDx=0;entryDy=0;" parent="ASk81csLXPlOufmrb-e4-1" source="Y14sTjWWQYVcK2IU2r9V-8" target="ug5MgOmhdK6F9uVVqbYR-54" edge="1">
          <mxGeometry relative="1" as="geometry"/>
        </mxCell>
        <mxCell id="Y14sTjWWQYVcK2IU2r9V-8" value="&lt;span style=&quot;font-size: 18px&quot;&gt;保存卖家ID&lt;/span&gt;" style="rounded=1;whiteSpace=wrap;html=1;fillColor=none;" parent="ASk81csLXPlOufmrb-e4-1" vertex="1">
          <mxGeometry x="690" y="565" width="120" height="60" as="geometry"/>
        </mxCell>
      </root>
    </mxGraphModel>
  </diagram>
</mxfile>
